<svg width="4050" height="17" viewBox="0 0 4050 17" fill="none" xmlns="http://www.w3.org/2000/svg">
<path d="M2.88477 3.10156V13H0.833984V3.10156H2.88477ZM4.55273 13V3.10156H6.60352V11.3047H10.8691V13H4.55273ZM12.1953 13V3.10156H14.2461V11.3047H18.5117V13H12.1953ZM25.9629 3.10156H28.0273V9.52734C28.0273 11.6943 26.3799 13.1436 23.9258 13.1367C21.4648 13.1436 19.8379 11.6943 19.8379 9.52734V3.10156H21.8887V9.36328C21.8955 10.5049 22.7021 11.3252 23.9258 11.332C25.1631 11.3252 25.9697 10.5049 25.9629 9.36328V3.10156ZM35.0684 5.93164C34.9863 5.14551 34.3643 4.6875 33.3594 4.6875C32.3203 4.6875 31.7393 5.16602 31.7324 5.82227C31.7256 6.54004 32.4639 6.86133 33.3184 7.05273L34.207 7.27148C35.9023 7.66113 37.167 8.52246 37.1738 10.1699C37.167 11.9814 35.7588 13.1436 33.3457 13.1367C30.9531 13.1436 29.4287 12.0361 29.3672 9.91016H31.3633C31.4316 10.9082 32.2246 11.4141 33.3184 11.4141C34.3984 11.4141 35.0957 10.9082 35.0957 10.1699C35.0957 9.49316 34.4805 9.17871 33.4004 8.91211L32.3203 8.65234C30.6523 8.24219 29.627 7.4082 29.627 5.95898C29.6201 4.16113 31.2061 2.96484 33.373 2.96484C35.5674 2.96484 37.0098 4.18164 37.0371 5.93164H35.0684ZM38.1309 4.79688V3.10156H46.2383V4.79688H43.2031V13H41.166V4.79688H38.1309ZM47.5098 13V3.10156H51.3926C53.6416 3.10156 54.9336 4.36621 54.9336 6.32812C54.9336 7.68164 54.3115 8.66602 53.1836 9.15137L55.2891 13H53.0195L51.126 9.48633H49.5605V13H47.5098ZM49.5605 7.81836H51.0098C52.2266 7.81836 52.8213 7.31934 52.8145 6.32812C52.8213 5.33008 52.2266 4.79004 51.0098 4.7832H49.5605V7.81836ZM58.0098 13H55.7949L59.2266 3.10156H61.8652L65.2832 13H63.082L62.3369 10.7168H58.7549L58.0098 13ZM59.2744 9.11719H61.8174L60.5801 5.33008H60.5117L59.2744 9.11719ZM64.8047 4.79688V3.10156H72.9121V4.79688H69.877V13H67.8398V4.79688H64.8047ZM76.2344 3.10156V13H74.1836V3.10156H76.2344ZM86.9668 8.05078C86.9668 11.2842 84.9639 13.1367 82.3457 13.1367C79.707 13.1367 77.7109 11.2705 77.7109 8.05078C77.7109 4.81738 79.707 2.96484 82.3457 2.96484C84.9639 2.96484 86.9668 4.81738 86.9668 8.05078ZM79.8027 8.05078C79.8027 10.1631 80.8076 11.3115 82.3457 11.3184C83.8701 11.3115 84.8818 10.1631 84.875 8.05078C84.8818 5.93164 83.8701 4.79004 82.3457 4.7832C80.8076 4.79004 79.8027 5.93164 79.8027 8.05078ZM96.7012 3.10156V13H94.9238L90.5762 6.71094H90.4941V13H88.4434V3.10156H90.248L94.5684 9.39062H94.6641V3.10156H96.7012Z" fill="white"/>
<path d="M126.451 6.54688C126.287 5.45312 125.446 4.79004 124.291 4.7832C122.753 4.79004 121.734 5.96582 121.734 8.05078C121.734 10.1836 122.767 11.3115 124.277 11.3184C125.405 11.3115 126.253 10.6963 126.451 9.62305L128.529 9.63672C128.304 11.4688 126.766 13.1367 124.25 13.1367C121.604 13.1367 119.643 11.2705 119.643 8.05078C119.643 4.81738 121.639 2.96484 124.25 2.96484C126.533 2.96484 128.256 4.27051 128.529 6.54688H126.451ZM129.965 13V3.10156H132.016V7.20312H136.309V3.10156H138.373V13H136.309V8.89844H132.016V13H129.965ZM141.695 13H139.48L142.912 3.10156H145.551L148.969 13H146.768L146.022 10.7168H142.44L141.695 13ZM142.96 9.11719H145.503L144.266 5.33008H144.197L142.96 9.11719ZM150.09 13V3.10156H153.973C156.222 3.10156 157.514 4.36621 157.514 6.32812C157.514 7.68164 156.892 8.66602 155.764 9.15137L157.869 13H155.6L153.706 9.48633H152.141V13H150.09ZM152.141 7.81836H153.59C154.807 7.81836 155.401 7.31934 155.395 6.32812C155.401 5.33008 154.807 4.79004 153.59 4.7832H152.141V7.81836ZM160.59 13H158.375L161.807 3.10156H164.445L167.863 13H165.662L164.917 10.7168H161.335L160.59 13ZM161.854 9.11719H164.397L163.16 5.33008H163.092L161.854 9.11719ZM175.137 6.54688C174.973 5.45312 174.132 4.79004 172.977 4.7832C171.438 4.79004 170.42 5.96582 170.42 8.05078C170.42 10.1836 171.452 11.3115 172.963 11.3184C174.091 11.3115 174.938 10.6963 175.137 9.62305L177.215 9.63672C176.989 11.4688 175.451 13.1367 172.936 13.1367C170.29 13.1367 168.328 11.2705 168.328 8.05078C168.328 4.81738 170.324 2.96484 172.936 2.96484C175.219 2.96484 176.941 4.27051 177.215 6.54688H175.137ZM178.268 4.79688V3.10156H186.375V4.79688H183.34V13H181.303V4.79688H178.268ZM187.646 13V3.10156H194.291V4.79688H189.697V7.20312H193.949V8.89844H189.697V11.3047H194.305V13H187.646ZM195.891 13V3.10156H199.773C202.022 3.10156 203.314 4.36621 203.314 6.32812C203.314 7.68164 202.692 8.66602 201.564 9.15137L203.67 13H201.4L199.507 9.48633H197.941V13H195.891ZM197.941 7.81836H199.391C200.607 7.81836 201.202 7.31934 201.195 6.32812C201.202 5.33008 200.607 4.79004 199.391 4.7832H197.941V7.81836ZM211.449 13H207.963V3.10156H211.49C214.471 3.10156 216.296 4.9541 216.289 8.03711C216.296 11.1338 214.471 13 211.449 13ZM210.014 11.2363H211.367C213.254 11.2363 214.238 10.2588 214.238 8.03711C214.238 5.83594 213.254 4.86523 211.381 4.86523H210.014V11.2363ZM217.779 13V3.10156H224.424V4.79688H219.83V7.20312H224.082V8.89844H219.83V11.3047H224.438V13H217.779ZM231.396 5.93164C231.314 5.14551 230.692 4.6875 229.688 4.6875C228.648 4.6875 228.067 5.16602 228.061 5.82227C228.054 6.54004 228.792 6.86133 229.646 7.05273L230.535 7.27148C232.23 7.66113 233.495 8.52246 233.502 10.1699C233.495 11.9814 232.087 13.1436 229.674 13.1367C227.281 13.1436 225.757 12.0361 225.695 9.91016H227.691C227.76 10.9082 228.553 11.4141 229.646 11.4141C230.727 11.4141 231.424 10.9082 231.424 10.1699C231.424 9.49316 230.809 9.17871 229.729 8.91211L228.648 8.65234C226.98 8.24219 225.955 7.4082 225.955 5.95898C225.948 4.16113 227.534 2.96484 229.701 2.96484C231.896 2.96484 233.338 4.18164 233.365 5.93164H231.396ZM236.893 3.10156V13H234.842V3.10156H236.893ZM245.137 6.28711C244.856 5.35742 244.111 4.79004 243.031 4.7832C241.5 4.79004 240.461 5.95898 240.461 8.03711C240.461 10.1289 241.466 11.3115 243.045 11.3184C244.46 11.3115 245.301 10.5117 245.328 9.26758H243.182V7.72266H247.311V8.95312C247.311 11.5508 245.526 13.1367 243.031 13.1367C240.256 13.1367 238.369 11.1953 238.369 8.06445C238.369 4.85156 240.379 2.96484 242.99 2.96484C245.226 2.96484 246.941 4.33887 247.215 6.28711H245.137ZM257.072 3.10156V13H255.295L250.947 6.71094H250.865V13H248.814V3.10156H250.619L254.939 9.39062H255.035V3.10156H257.072Z" fill="white"/>
<path d="M279.834 13V3.10156H281.885V7.49023H282.021L285.617 3.10156H288.092L284.4 7.53125L288.133 13H285.672L282.924 8.91211L281.885 10.1699V13H279.834ZM289.117 13V3.10156H295.762V4.79688H291.168V7.20312H295.42V8.89844H291.168V11.3047H295.775V13H289.117ZM296.76 3.10156H299.07L301.354 7.36719H301.449L303.719 3.10156H306.029L302.42 9.47266V13H300.369V9.47266L296.76 3.10156ZM312.059 3.10156L314.465 10.6484H314.561L316.98 3.10156H319.25L315.832 13H313.193L309.762 3.10156H312.059ZM322.422 3.10156V13H320.371V3.10156H322.422ZM329.463 5.93164C329.381 5.14551 328.759 4.6875 327.754 4.6875C326.715 4.6875 326.134 5.16602 326.127 5.82227C326.12 6.54004 326.858 6.86133 327.713 7.05273L328.602 7.27148C330.297 7.66113 331.562 8.52246 331.568 10.1699C331.562 11.9814 330.153 13.1436 327.74 13.1367C325.348 13.1436 323.823 12.0361 323.762 9.91016H325.758C325.826 10.9082 326.619 11.4141 327.713 11.4141C328.793 11.4141 329.49 10.9082 329.49 10.1699C329.49 9.49316 328.875 9.17871 327.795 8.91211L326.715 8.65234C325.047 8.24219 324.021 7.4082 324.021 5.95898C324.015 4.16113 325.601 2.96484 327.768 2.96484C329.962 2.96484 331.404 4.18164 331.432 5.93164H329.463ZM339.033 3.10156H341.098V9.52734C341.098 11.6943 339.45 13.1436 336.996 13.1367C334.535 13.1436 332.908 11.6943 332.908 9.52734V3.10156H334.959V9.36328C334.966 10.5049 335.772 11.3252 336.996 11.332C338.233 11.3252 339.04 10.5049 339.033 9.36328V3.10156ZM344.42 13H342.205L345.637 3.10156H348.275L351.693 13H349.492L348.747 10.7168H345.165L344.42 13ZM345.685 9.11719H348.228L346.99 5.33008H346.922L345.685 9.11719ZM352.814 13V3.10156H354.865V11.3047H359.131V13H352.814Z" fill="white"/>
<path d="M388.451 6.54688C388.287 5.45312 387.446 4.79004 386.291 4.7832C384.753 4.79004 383.734 5.96582 383.734 8.05078C383.734 10.1836 384.767 11.3115 386.277 11.3184C387.405 11.3115 388.253 10.6963 388.451 9.62305L390.529 9.63672C390.304 11.4688 388.766 13.1367 386.25 13.1367C383.604 13.1367 381.643 11.2705 381.643 8.05078C381.643 4.81738 383.639 2.96484 386.25 2.96484C388.533 2.96484 390.256 4.27051 390.529 6.54688H388.451ZM401.029 8.05078C401.029 11.2842 399.026 13.1367 396.408 13.1367C393.77 13.1367 391.773 11.2705 391.773 8.05078C391.773 4.81738 393.77 2.96484 396.408 2.96484C399.026 2.96484 401.029 4.81738 401.029 8.05078ZM393.865 8.05078C393.865 10.1631 394.87 11.3115 396.408 11.3184C397.933 11.3115 398.944 10.1631 398.938 8.05078C398.944 5.93164 397.933 4.79004 396.408 4.7832C394.87 4.79004 393.865 5.93164 393.865 8.05078ZM410.764 3.10156V13H408.986L404.639 6.71094H404.557V13H402.506V3.10156H404.311L408.631 9.39062H408.727V3.10156H410.764ZM419.049 6.54688C418.885 5.45312 418.044 4.79004 416.889 4.7832C415.351 4.79004 414.332 5.96582 414.332 8.05078C414.332 10.1836 415.364 11.3115 416.875 11.3184C418.003 11.3115 418.851 10.6963 419.049 9.62305L421.127 9.63672C420.901 11.4688 419.363 13.1367 416.848 13.1367C414.202 13.1367 412.24 11.2705 412.24 8.05078C412.24 4.81738 414.236 2.96484 416.848 2.96484C419.131 2.96484 420.854 4.27051 421.127 6.54688H419.049ZM422.562 13V3.10156H429.207V4.79688H424.613V7.20312H428.865V8.89844H424.613V11.3047H429.221V13H422.562ZM430.807 13V3.10156H434.689C436.938 3.10156 438.23 4.48926 438.23 6.4375C438.23 8.41309 436.918 9.77344 434.635 9.77344H432.857V13H430.807ZM432.857 8.11914H434.307C435.523 8.11914 436.118 7.43555 436.111 6.4375C436.118 5.45312 435.523 4.79004 434.307 4.7832H432.857V8.11914ZM439.146 4.79688V3.10156H447.254V4.79688H444.219V13H442.182V4.79688H439.146ZM453.406 13H451.191L454.623 3.10156H457.262L460.68 13H458.479L457.733 10.7168H454.151L453.406 13ZM454.671 9.11719H457.214L455.977 5.33008H455.908L454.671 9.11719ZM461.801 13V3.10156H465.684C467.933 3.10156 469.225 4.36621 469.225 6.32812C469.225 7.68164 468.603 8.66602 467.475 9.15137L469.58 13H467.311L465.417 9.48633H463.852V13H461.801ZM463.852 7.81836H465.301C466.518 7.81836 467.112 7.31934 467.105 6.32812C467.112 5.33008 466.518 4.79004 465.301 4.7832H463.852V7.81836ZM470.264 4.79688V3.10156H478.371V4.79688H475.336V13H473.299V4.79688H470.264Z" fill="white"/>
<path d="M500.834 3.10156H503.377L506.125 9.81445H506.234L508.982 3.10156H511.525V13H509.529V6.51953H509.447L506.863 12.959H505.496L502.912 6.49219H502.83V13H500.834V3.10156ZM513.193 13V3.10156H519.838V4.79688H515.244V7.20312H519.496V8.89844H515.244V11.3047H519.852V13H513.193ZM524.924 13H521.438V3.10156H524.965C527.945 3.10156 529.771 4.9541 529.764 8.03711C529.771 11.1338 527.945 13 524.924 13ZM523.488 11.2363H524.842C526.729 11.2363 527.713 10.2588 527.713 8.03711C527.713 5.83594 526.729 4.86523 524.855 4.86523H523.488V11.2363ZM533.305 3.10156V13H531.254V3.10156H533.305ZM536.627 13H534.412L537.844 3.10156H540.482L543.9 13H541.699L540.954 10.7168H537.372L536.627 13ZM537.892 9.11719H540.435L539.197 5.33008H539.129L537.892 9.11719ZM549.902 13H547.688L551.119 3.10156H553.758L557.176 13H554.975L554.229 10.7168H550.647L549.902 13ZM551.167 9.11719H553.71L552.473 5.33008H552.404L551.167 9.11719ZM558.297 13V3.10156H562.18C564.429 3.10156 565.721 4.36621 565.721 6.32812C565.721 7.68164 565.099 8.66602 563.971 9.15137L566.076 13H563.807L561.913 9.48633H560.348V13H558.297ZM560.348 7.81836H561.797C563.014 7.81836 563.608 7.31934 563.602 6.32812C563.608 5.33008 563.014 4.79004 561.797 4.7832H560.348V7.81836ZM566.76 4.79688V3.10156H574.867V4.79688H571.832V13H569.795V4.79688H566.76Z" fill="white"/>
<path d="M604.451 6.54688C604.287 5.45312 603.446 4.79004 602.291 4.7832C600.753 4.79004 599.734 5.96582 599.734 8.05078C599.734 10.1836 600.767 11.3115 602.277 11.3184C603.405 11.3115 604.253 10.6963 604.451 9.62305L606.529 9.63672C606.304 11.4688 604.766 13.1367 602.25 13.1367C599.604 13.1367 597.643 11.2705 597.643 8.05078C597.643 4.81738 599.639 2.96484 602.25 2.96484C604.533 2.96484 606.256 4.27051 606.529 6.54688H604.451ZM617.029 8.05078C617.029 11.2842 615.026 13.1367 612.408 13.1367C609.77 13.1367 607.773 11.2705 607.773 8.05078C607.773 4.81738 609.77 2.96484 612.408 2.96484C615.026 2.96484 617.029 4.81738 617.029 8.05078ZM609.865 8.05078C609.865 10.1631 610.87 11.3115 612.408 11.3184C613.933 11.3115 614.944 10.1631 614.938 8.05078C614.944 5.93164 613.933 4.79004 612.408 4.7832C610.87 4.79004 609.865 5.93164 609.865 8.05078ZM618.506 3.10156H621.049L623.797 9.81445H623.906L626.654 3.10156H629.197V13H627.201V6.51953H627.119L624.535 12.959H623.168L620.584 6.49219H620.502V13H618.506V3.10156ZM632.916 3.10156V13H630.865V3.10156H632.916ZM641.201 6.54688C641.037 5.45312 640.196 4.79004 639.041 4.7832C637.503 4.79004 636.484 5.96582 636.484 8.05078C636.484 10.1836 637.517 11.3115 639.027 11.3184C640.155 11.3115 641.003 10.6963 641.201 9.62305L643.279 9.63672C643.054 11.4688 641.516 13.1367 639 13.1367C636.354 13.1367 634.393 11.2705 634.393 8.05078C634.393 4.81738 636.389 2.96484 639 2.96484C641.283 2.96484 643.006 4.27051 643.279 6.54688H641.201ZM650.088 5.93164C650.006 5.14551 649.384 4.6875 648.379 4.6875C647.34 4.6875 646.759 5.16602 646.752 5.82227C646.745 6.54004 647.483 6.86133 648.338 7.05273L649.227 7.27148C650.922 7.66113 652.187 8.52246 652.193 10.1699C652.187 11.9814 650.778 13.1436 648.365 13.1367C645.973 13.1436 644.448 12.0361 644.387 9.91016H646.383C646.451 10.9082 647.244 11.4141 648.338 11.4141C649.418 11.4141 650.115 10.9082 650.115 10.1699C650.115 9.49316 649.5 9.17871 648.42 8.91211L647.34 8.65234C645.672 8.24219 644.646 7.4082 644.646 5.95898C644.64 4.16113 646.226 2.96484 648.393 2.96484C650.587 2.96484 652.029 4.18164 652.057 5.93164H650.088Z" fill="white"/>
<path d="M676.488 13H674.273L677.705 3.10156H680.344L683.762 13H681.561L680.815 10.7168H677.233L676.488 13ZM677.753 9.11719H680.296L679.059 5.33008H678.99L677.753 9.11719ZM693.141 3.10156V13H691.363L687.016 6.71094H686.934V13H684.883V3.10156H686.688L691.008 9.39062H691.104V3.10156H693.141ZM696.859 3.10156V13H694.809V3.10156H696.859ZM698.527 3.10156H701.07L703.818 9.81445H703.928L706.676 3.10156H709.219V13H707.223V6.51953H707.141L704.557 12.959H703.189L700.605 6.49219H700.523V13H698.527V3.10156ZM712.541 13H710.326L713.758 3.10156H716.396L719.814 13H717.613L716.868 10.7168H713.286L712.541 13ZM713.806 9.11719H716.349L715.111 5.33008H715.043L713.806 9.11719ZM719.336 4.79688V3.10156H727.443V4.79688H724.408V13H722.371V4.79688H719.336ZM730.766 3.10156V13H728.715V3.10156H730.766ZM741.498 8.05078C741.498 11.2842 739.495 13.1367 736.877 13.1367C734.238 13.1367 732.242 11.2705 732.242 8.05078C732.242 4.81738 734.238 2.96484 736.877 2.96484C739.495 2.96484 741.498 4.81738 741.498 8.05078ZM734.334 8.05078C734.334 10.1631 735.339 11.3115 736.877 11.3184C738.401 11.3115 739.413 10.1631 739.406 8.05078C739.413 5.93164 738.401 4.79004 736.877 4.7832C735.339 4.79004 734.334 5.93164 734.334 8.05078ZM751.232 3.10156V13H749.455L745.107 6.71094H745.025V13H742.975V3.10156H744.779L749.1 9.39062H749.195V3.10156H751.232Z" fill="white"/>
<path d="M774.834 3.10156H777.377L780.125 9.81445H780.234L782.982 3.10156H785.525V13H783.529V6.51953H783.447L780.863 12.959H779.496L776.912 6.49219H776.83V13H774.834V3.10156ZM796.258 8.05078C796.258 11.2842 794.255 13.1367 791.637 13.1367C788.998 13.1367 787.002 11.2705 787.002 8.05078C787.002 4.81738 788.998 2.96484 791.637 2.96484C794.255 2.96484 796.258 4.81738 796.258 8.05078ZM789.094 8.05078C789.094 10.1631 790.099 11.3115 791.637 11.3184C793.161 11.3115 794.173 10.1631 794.166 8.05078C794.173 5.93164 793.161 4.79004 791.637 4.7832C790.099 4.79004 789.094 5.93164 789.094 8.05078ZM796.914 4.79688V3.10156H805.021V4.79688H801.986V13H799.949V4.79688H796.914ZM808.344 3.10156V13H806.293V3.10156H808.344ZM819.076 8.05078C819.076 11.2842 817.073 13.1367 814.455 13.1367C811.816 13.1367 809.82 11.2705 809.82 8.05078C809.82 4.81738 811.816 2.96484 814.455 2.96484C817.073 2.96484 819.076 4.81738 819.076 8.05078ZM811.912 8.05078C811.912 10.1631 812.917 11.3115 814.455 11.3184C815.979 11.3115 816.991 10.1631 816.984 8.05078C816.991 5.93164 815.979 4.79004 814.455 4.7832C812.917 4.79004 811.912 5.93164 811.912 8.05078ZM828.811 3.10156V13H827.033L822.686 6.71094H822.604V13H820.553V3.10156H822.357L826.678 9.39062H826.773V3.10156H828.811ZM840.281 6.28711C840.001 5.35742 839.256 4.79004 838.176 4.7832C836.645 4.79004 835.605 5.95898 835.605 8.03711C835.605 10.1289 836.61 11.3115 838.189 11.3184C839.604 11.3115 840.445 10.5117 840.473 9.26758H838.326V7.72266H842.455V8.95312C842.455 11.5508 840.671 13.1367 838.176 13.1367C835.4 13.1367 833.514 11.1953 833.514 8.06445C833.514 4.85156 835.523 2.96484 838.135 2.96484C840.37 2.96484 842.086 4.33887 842.359 6.28711H840.281ZM843.959 13V3.10156H847.842C850.091 3.10156 851.383 4.36621 851.383 6.32812C851.383 7.68164 850.761 8.66602 849.633 9.15137L851.738 13H849.469L847.575 9.48633H846.01V13H843.959ZM846.01 7.81836H847.459C848.676 7.81836 849.271 7.31934 849.264 6.32812C849.271 5.33008 848.676 4.79004 847.459 4.7832H846.01V7.81836ZM854.459 13H852.244L855.676 3.10156H858.314L861.732 13H859.531L858.786 10.7168H855.204L854.459 13ZM855.724 9.11719H858.267L857.029 5.33008H856.961L855.724 9.11719ZM862.854 13V3.10156H866.736C868.985 3.10156 870.277 4.48926 870.277 6.4375C870.277 8.41309 868.965 9.77344 866.682 9.77344H864.904V13H862.854ZM864.904 8.11914H866.354C867.57 8.11914 868.165 7.43555 868.158 6.4375C868.165 5.45312 867.57 4.79004 866.354 4.7832H864.904V8.11914ZM871.576 13V3.10156H873.627V7.20312H877.92V3.10156H879.984V13H877.92V8.89844H873.627V13H871.576ZM883.703 3.10156V13H881.652V3.10156H883.703ZM891.988 6.54688C891.824 5.45312 890.983 4.79004 889.828 4.7832C888.29 4.79004 887.271 5.96582 887.271 8.05078C887.271 10.1836 888.304 11.3115 889.814 11.3184C890.942 11.3115 891.79 10.6963 891.988 9.62305L894.066 9.63672C893.841 11.4688 892.303 13.1367 889.787 13.1367C887.142 13.1367 885.18 11.2705 885.18 8.05078C885.18 4.81738 887.176 2.96484 889.787 2.96484C892.07 2.96484 893.793 4.27051 894.066 6.54688H891.988ZM900.875 5.93164C900.793 5.14551 900.171 4.6875 899.166 4.6875C898.127 4.6875 897.546 5.16602 897.539 5.82227C897.532 6.54004 898.271 6.86133 899.125 7.05273L900.014 7.27148C901.709 7.66113 902.974 8.52246 902.98 10.1699C902.974 11.9814 901.565 13.1436 899.152 13.1367C896.76 13.1436 895.235 12.0361 895.174 9.91016H897.17C897.238 10.9082 898.031 11.4141 899.125 11.4141C900.205 11.4141 900.902 10.9082 900.902 10.1699C900.902 9.49316 900.287 9.17871 899.207 8.91211L898.127 8.65234C896.459 8.24219 895.434 7.4082 895.434 5.95898C895.427 4.16113 897.013 2.96484 899.18 2.96484C901.374 2.96484 902.816 4.18164 902.844 5.93164H900.875Z" fill="white"/>
<path d="M927.885 3.10156V13H925.834V3.10156H927.885ZM929.553 3.10156H932.096L934.844 9.81445H934.953L937.701 3.10156H940.244V13H938.248V6.51953H938.166L935.582 12.959H934.215L931.631 6.49219H931.549V13H929.553V3.10156ZM943.566 13H941.352L944.783 3.10156H947.422L950.84 13H948.639L947.894 10.7168H944.312L943.566 13ZM944.831 9.11719H947.374L946.137 5.33008H946.068L944.831 9.11719ZM958.072 6.28711C957.792 5.35742 957.047 4.79004 955.967 4.7832C954.436 4.79004 953.396 5.95898 953.396 8.03711C953.396 10.1289 954.401 11.3115 955.98 11.3184C957.396 11.3115 958.236 10.5117 958.264 9.26758H956.117V7.72266H960.246V8.95312C960.246 11.5508 958.462 13.1367 955.967 13.1367C953.191 13.1367 951.305 11.1953 951.305 8.06445C951.305 4.85156 953.314 2.96484 955.926 2.96484C958.161 2.96484 959.877 4.33887 960.15 6.28711H958.072ZM961.75 13V3.10156H968.395V4.79688H963.801V7.20312H968.053V8.89844H963.801V11.3047H968.408V13H961.75ZM978.252 3.10156V13H976.475L972.127 6.71094H972.045V13H969.994V3.10156H971.799L976.119 9.39062H976.215V3.10156H978.252ZM981.574 13H979.359L982.791 3.10156H985.43L988.848 13H986.646L985.901 10.7168H982.319L981.574 13ZM982.839 9.11719H985.382L984.145 5.33008H984.076L982.839 9.11719ZM989.969 13V3.10156H993.852C996.101 3.10156 997.393 4.36621 997.393 6.32812C997.393 7.68164 996.771 8.66602 995.643 9.15137L997.748 13H995.479L993.585 9.48633H992.02V13H989.969ZM992.02 7.81836H993.469C994.686 7.81836 995.28 7.31934 995.273 6.32812C995.28 5.33008 994.686 4.79004 993.469 4.7832H992.02V7.81836ZM997.803 3.10156H1000.11L1002.4 7.36719H1002.49L1004.76 3.10156H1007.07L1003.46 9.47266V13H1001.41V9.47266L997.803 3.10156ZM1013.02 13H1010.8L1014.24 3.10156H1016.88L1020.29 13H1018.09L1017.35 10.7168H1013.76L1013.02 13ZM1014.28 9.11719H1016.83L1015.59 5.33008H1015.52L1014.28 9.11719ZM1023.46 3.10156V13H1021.41V3.10156H1023.46ZM1033.73 5.93164C1033.65 5.14551 1033.03 4.6875 1032.02 4.6875C1030.98 4.6875 1030.4 5.16602 1030.4 5.82227C1030.39 6.54004 1031.13 6.86133 1031.98 7.05273L1032.87 7.27148C1034.57 7.66113 1035.83 8.52246 1035.84 10.1699C1035.83 11.9814 1034.42 13.1436 1032.01 13.1367C1029.62 13.1436 1028.09 12.0361 1028.03 9.91016H1030.03C1030.1 10.9082 1030.89 11.4141 1031.98 11.4141C1033.06 11.4141 1033.76 10.9082 1033.76 10.1699C1033.76 9.49316 1033.14 9.17871 1032.06 8.91211L1030.98 8.65234C1029.32 8.24219 1028.29 7.4082 1028.29 5.95898C1028.28 4.16113 1029.87 2.96484 1032.04 2.96484C1034.23 2.96484 1035.67 4.18164 1035.7 5.93164H1033.73ZM1046.24 8.05078C1046.24 11.2842 1044.24 13.1367 1041.62 13.1367C1038.98 13.1367 1036.99 11.2705 1036.99 8.05078C1036.99 4.81738 1038.98 2.96484 1041.62 2.96484C1044.24 2.96484 1046.24 4.81738 1046.24 8.05078ZM1039.08 8.05078C1039.08 10.1631 1040.08 11.3115 1041.62 11.3184C1043.15 11.3115 1044.16 10.1631 1044.15 8.05078C1044.16 5.93164 1043.15 4.79004 1041.62 4.7832C1040.08 4.79004 1039.08 5.93164 1039.08 8.05078ZM1047.72 13V3.10156H1049.77V11.3047H1054.04V13H1047.72ZM1061.49 3.10156H1063.55V9.52734C1063.55 11.6943 1061.9 13.1436 1059.45 13.1367C1056.99 13.1436 1055.36 11.6943 1055.36 9.52734V3.10156H1057.41V9.36328C1057.42 10.5049 1058.23 11.3252 1059.45 11.332C1060.69 11.3252 1061.49 10.5049 1061.49 9.36328V3.10156ZM1064.84 4.79688V3.10156H1072.94V4.79688H1069.91V13H1067.87V4.79688H1064.84ZM1076.27 3.10156V13H1074.21V3.10156H1076.27ZM1087 8.05078C1087 11.2842 1085 13.1367 1082.38 13.1367C1079.74 13.1367 1077.74 11.2705 1077.74 8.05078C1077.74 4.81738 1079.74 2.96484 1082.38 2.96484C1085 2.96484 1087 4.81738 1087 8.05078ZM1079.83 8.05078C1079.83 10.1631 1080.84 11.3115 1082.38 11.3184C1083.9 11.3115 1084.91 10.1631 1084.91 8.05078C1084.91 5.93164 1083.9 4.79004 1082.38 4.7832C1080.84 4.79004 1079.83 5.93164 1079.83 8.05078ZM1096.73 3.10156V13H1094.96L1090.61 6.71094H1090.53V13H1088.47V3.10156H1090.28L1094.6 9.39062H1094.7V3.10156H1096.73ZM1103.77 5.93164C1103.69 5.14551 1103.07 4.6875 1102.06 4.6875C1101.03 4.6875 1100.44 5.16602 1100.44 5.82227C1100.43 6.54004 1101.17 6.86133 1102.02 7.05273L1102.91 7.27148C1104.61 7.66113 1105.87 8.52246 1105.88 10.1699C1105.87 11.9814 1104.46 13.1436 1102.05 13.1367C1099.66 13.1436 1098.13 12.0361 1098.07 9.91016H1100.07C1100.14 10.9082 1100.93 11.4141 1102.02 11.4141C1103.1 11.4141 1103.8 10.9082 1103.8 10.1699C1103.8 9.49316 1103.19 9.17871 1102.11 8.91211L1101.03 8.65234C1099.36 8.24219 1098.33 7.4082 1098.33 5.95898C1098.33 4.16113 1099.91 2.96484 1102.08 2.96484C1104.27 2.96484 1105.71 4.18164 1105.74 5.93164H1103.77Z" fill="white"/>
<path d="M1134.21 5.93164C1134.12 5.14551 1133.5 4.6875 1132.5 4.6875C1131.46 4.6875 1130.88 5.16602 1130.87 5.82227C1130.86 6.54004 1131.6 6.86133 1132.46 7.05273L1133.35 7.27148C1135.04 7.66113 1136.31 8.52246 1136.31 10.1699C1136.31 11.9814 1134.9 13.1436 1132.48 13.1367C1130.09 13.1436 1128.57 12.0361 1128.51 9.91016H1130.5C1130.57 10.9082 1131.36 11.4141 1132.46 11.4141C1133.54 11.4141 1134.23 10.9082 1134.23 10.1699C1134.23 9.49316 1133.62 9.17871 1132.54 8.91211L1131.46 8.65234C1129.79 8.24219 1128.77 7.4082 1128.77 5.95898C1128.76 4.16113 1130.34 2.96484 1132.51 2.96484C1134.71 2.96484 1136.15 4.18164 1136.18 5.93164H1134.21ZM1137.27 4.79688V3.10156H1145.38V4.79688H1142.34V13H1140.3V4.79688H1137.27ZM1155.28 8.05078C1155.28 11.2842 1153.27 13.1367 1150.65 13.1367C1148.02 13.1367 1146.02 11.2705 1146.02 8.05078C1146.02 4.81738 1148.02 2.96484 1150.65 2.96484C1153.27 2.96484 1155.28 4.81738 1155.28 8.05078ZM1148.11 8.05078C1148.11 10.1631 1149.12 11.3115 1150.65 11.3184C1152.18 11.3115 1153.19 10.1631 1153.18 8.05078C1153.19 5.93164 1152.18 4.79004 1150.65 4.7832C1149.12 4.79004 1148.11 5.93164 1148.11 8.05078ZM1156.75 13V3.10156H1160.63C1162.88 3.10156 1164.18 4.36621 1164.18 6.32812C1164.18 7.68164 1163.55 8.66602 1162.43 9.15137L1164.53 13H1162.26L1160.37 9.48633H1158.8V13H1156.75ZM1158.8 7.81836H1160.25C1161.47 7.81836 1162.06 7.31934 1162.06 6.32812C1162.06 5.33008 1161.47 4.79004 1160.25 4.7832H1158.8V7.81836ZM1164.59 3.10156H1166.9L1169.18 7.36719H1169.28L1171.54 3.10156H1173.86L1170.25 9.47266V13H1168.2V9.47266L1164.59 3.10156ZM1174.92 13V3.10156H1178.86C1181.04 3.10156 1182.15 4.1543 1182.14 5.64453C1182.15 6.80664 1181.38 7.53809 1180.36 7.76367V7.85938C1181.48 7.91406 1182.53 8.80273 1182.54 10.2656C1182.53 11.8379 1181.35 13 1179.12 13H1174.92ZM1176.97 11.3047H1178.71C1179.9 11.3115 1180.41 10.8193 1180.4 10.0742C1180.41 9.24023 1179.78 8.65234 1178.76 8.65234H1176.97V11.3047ZM1176.97 7.24414H1178.56C1179.42 7.25098 1180.07 6.76562 1180.06 5.97266C1180.07 5.25488 1179.54 4.76953 1178.6 4.76953H1176.97V7.24414ZM1192.9 8.05078C1192.9 11.2842 1190.9 13.1367 1188.28 13.1367C1185.64 13.1367 1183.64 11.2705 1183.64 8.05078C1183.64 4.81738 1185.64 2.96484 1188.28 2.96484C1190.9 2.96484 1192.9 4.81738 1192.9 8.05078ZM1185.74 8.05078C1185.74 10.1631 1186.74 11.3115 1188.28 11.3184C1189.8 11.3115 1190.82 10.1631 1190.81 8.05078C1190.82 5.93164 1189.8 4.79004 1188.28 4.7832C1186.74 4.79004 1185.74 5.93164 1185.74 8.05078ZM1195.47 13H1193.26L1196.69 3.10156H1199.33L1202.74 13H1200.54L1199.8 10.7168H1196.22L1195.47 13ZM1196.74 9.11719H1199.28L1198.04 5.33008H1197.97L1196.74 9.11719ZM1203.87 13V3.10156H1207.75C1210 3.10156 1211.29 4.36621 1211.29 6.32812C1211.29 7.68164 1210.67 8.66602 1209.54 9.15137L1211.64 13H1209.38L1207.48 9.48633H1205.92V13H1203.87ZM1205.92 7.81836H1207.37C1208.58 7.81836 1209.18 7.31934 1209.17 6.32812C1209.18 5.33008 1208.58 4.79004 1207.37 4.7832H1205.92V7.81836ZM1216.2 13H1212.71V3.10156H1216.24C1219.22 3.10156 1221.04 4.9541 1221.04 8.03711C1221.04 11.1338 1219.22 13 1216.2 13ZM1214.76 11.2363H1216.12C1218 11.2363 1218.99 10.2588 1218.99 8.03711C1218.99 5.83594 1218 4.86523 1216.13 4.86523H1214.76V11.2363Z" fill="white"/>
<path d="M1243.83 13V3.10156H1245.88V11.3047H1250.15V13H1243.83ZM1260.14 8.05078C1260.14 11.2842 1258.14 13.1367 1255.52 13.1367C1252.88 13.1367 1250.89 11.2705 1250.89 8.05078C1250.89 4.81738 1252.88 2.96484 1255.52 2.96484C1258.14 2.96484 1260.14 4.81738 1260.14 8.05078ZM1252.98 8.05078C1252.98 10.1631 1253.99 11.3115 1255.52 11.3184C1257.05 11.3115 1258.06 10.1631 1258.05 8.05078C1258.06 5.93164 1257.05 4.79004 1255.52 4.7832C1253.99 4.79004 1252.98 5.93164 1252.98 8.05078ZM1268.2 6.28711C1267.92 5.35742 1267.17 4.79004 1266.09 4.7832C1264.56 4.79004 1263.52 5.95898 1263.52 8.03711C1263.52 10.1289 1264.53 11.3115 1266.11 11.3184C1267.52 11.3115 1268.36 10.5117 1268.39 9.26758H1266.24V7.72266H1270.37V8.95312C1270.37 11.5508 1268.59 13.1367 1266.09 13.1367C1263.32 13.1367 1261.43 11.1953 1261.43 8.06445C1261.43 4.85156 1263.44 2.96484 1266.05 2.96484C1268.29 2.96484 1270 4.33887 1270.28 6.28711H1268.2ZM1280.94 8.05078C1280.94 11.2842 1278.94 13.1367 1276.32 13.1367C1273.68 13.1367 1271.68 11.2705 1271.68 8.05078C1271.68 4.81738 1273.68 2.96484 1276.32 2.96484C1278.94 2.96484 1280.94 4.81738 1280.94 8.05078ZM1273.78 8.05078C1273.78 10.1631 1274.78 11.3115 1276.32 11.3184C1277.84 11.3115 1278.85 10.1631 1278.85 8.05078C1278.85 5.93164 1277.84 4.79004 1276.32 4.7832C1274.78 4.79004 1273.78 5.93164 1273.78 8.05078ZM1289.13 13H1285.64V3.10156H1289.17C1292.15 3.10156 1293.98 4.9541 1293.97 8.03711C1293.98 11.1338 1292.15 13 1289.13 13ZM1287.69 11.2363H1289.05C1290.93 11.2363 1291.92 10.2588 1291.92 8.03711C1291.92 5.83594 1290.93 4.86523 1289.06 4.86523H1287.69V11.2363ZM1295.46 13V3.10156H1302.1V4.79688H1297.51V7.20312H1301.76V8.89844H1297.51V11.3047H1302.12V13H1295.46ZM1309.08 5.93164C1308.99 5.14551 1308.37 4.6875 1307.37 4.6875C1306.33 4.6875 1305.75 5.16602 1305.74 5.82227C1305.73 6.54004 1306.47 6.86133 1307.33 7.05273L1308.21 7.27148C1309.91 7.66113 1311.17 8.52246 1311.18 10.1699C1311.17 11.9814 1309.77 13.1436 1307.35 13.1367C1304.96 13.1436 1303.44 12.0361 1303.38 9.91016H1305.37C1305.44 10.9082 1306.23 11.4141 1307.33 11.4141C1308.41 11.4141 1309.1 10.9082 1309.1 10.1699C1309.1 9.49316 1308.49 9.17871 1307.41 8.91211L1306.33 8.65234C1304.66 8.24219 1303.63 7.4082 1303.63 5.95898C1303.63 4.16113 1305.21 2.96484 1307.38 2.96484C1309.58 2.96484 1311.02 4.18164 1311.04 5.93164H1309.08ZM1314.57 3.10156V13H1312.52V3.10156H1314.57ZM1322.82 6.28711C1322.54 5.35742 1321.79 4.79004 1320.71 4.7832C1319.18 4.79004 1318.14 5.95898 1318.14 8.03711C1318.14 10.1289 1319.15 11.3115 1320.72 11.3184C1322.14 11.3115 1322.98 10.5117 1323.01 9.26758H1320.86V7.72266H1324.99V8.95312C1324.99 11.5508 1323.21 13.1367 1320.71 13.1367C1317.94 13.1367 1316.05 11.1953 1316.05 8.06445C1316.05 4.85156 1318.06 2.96484 1320.67 2.96484C1322.91 2.96484 1324.62 4.33887 1324.89 6.28711H1322.82ZM1334.75 3.10156V13H1332.97L1328.63 6.71094H1328.54V13H1326.49V3.10156H1328.3L1332.62 9.39062H1332.71V3.10156H1334.75Z" fill="white"/>
<path d="M108.486 10.8945C107.461 10.8945 106.641 10.0742 106.641 9.04883C106.641 8.03711 107.461 7.2168 108.486 7.2168C109.498 7.2168 110.318 8.03711 110.318 9.04883C110.318 10.0742 109.498 10.8945 108.486 10.8945Z" fill="white"/>
<path d="M268.486 10.8945C267.461 10.8945 266.641 10.0742 266.641 9.04883C266.641 8.03711 267.461 7.2168 268.486 7.2168C269.498 7.2168 270.318 8.03711 270.318 9.04883C270.318 10.0742 269.498 10.8945 268.486 10.8945Z" fill="white"/>
<path d="M370.486 10.8945C369.461 10.8945 368.641 10.0742 368.641 9.04883C368.641 8.03711 369.461 7.2168 370.486 7.2168C371.498 7.2168 372.318 8.03711 372.318 9.04883C372.318 10.0742 371.498 10.8945 370.486 10.8945Z" fill="white"/>
<path d="M489.486 10.8945C488.461 10.8945 487.641 10.0742 487.641 9.04883C487.641 8.03711 488.461 7.2168 489.486 7.2168C490.498 7.2168 491.318 8.03711 491.318 9.04883C491.318 10.0742 490.498 10.8945 489.486 10.8945Z" fill="white"/>
<path d="M586.486 10.8945C585.461 10.8945 584.641 10.0742 584.641 9.04883C584.641 8.03711 585.461 7.2168 586.486 7.2168C587.498 7.2168 588.318 8.03711 588.318 9.04883C588.318 10.0742 587.498 10.8945 586.486 10.8945Z" fill="white"/>
<path d="M663.486 10.8945C662.461 10.8945 661.641 10.0742 661.641 9.04883C661.641 8.03711 662.461 7.2168 663.486 7.2168C664.498 7.2168 665.318 8.03711 665.318 9.04883C665.318 10.0742 664.498 10.8945 663.486 10.8945Z" fill="white"/>
<path d="M763.486 10.8945C762.461 10.8945 761.641 10.0742 761.641 9.04883C761.641 8.03711 762.461 7.2168 763.486 7.2168C764.498 7.2168 765.318 8.03711 765.318 9.04883C765.318 10.0742 764.498 10.8945 763.486 10.8945Z" fill="white"/>
<path d="M914.486 10.8945C913.461 10.8945 912.641 10.0742 912.641 9.04883C912.641 8.03711 913.461 7.2168 914.486 7.2168C915.498 7.2168 916.318 8.03711 916.318 9.04883C916.318 10.0742 915.498 10.8945 914.486 10.8945Z" fill="white"/>
<path d="M1117.49 10.8945C1116.46 10.8945 1115.64 10.0742 1115.64 9.04883C1115.64 8.03711 1116.46 7.2168 1117.49 7.2168C1118.5 7.2168 1119.32 8.03711 1119.32 9.04883C1119.32 10.0742 1118.5 10.8945 1117.49 10.8945Z" fill="white"/>
<path d="M1232.49 10.8945C1231.46 10.8945 1230.64 10.0742 1230.64 9.04883C1230.64 8.03711 1231.46 7.2168 1232.49 7.2168C1233.5 7.2168 1234.32 8.03711 1234.32 9.04883C1234.32 10.0742 1233.5 10.8945 1232.49 10.8945Z" fill="white"/>
<path d="M1359.88 3.10156V13H1357.83V3.10156H1359.88ZM1361.55 13V3.10156H1363.6V11.3047H1367.87V13H1361.55ZM1369.2 13V3.10156H1371.25V11.3047H1375.51V13H1369.2ZM1382.96 3.10156H1385.03V9.52734C1385.03 11.6943 1383.38 13.1436 1380.93 13.1367C1378.46 13.1436 1376.84 11.6943 1376.84 9.52734V3.10156H1378.89V9.36328C1378.9 10.5049 1379.7 11.3252 1380.93 11.332C1382.16 11.3252 1382.97 10.5049 1382.96 9.36328V3.10156ZM1392.07 5.93164C1391.99 5.14551 1391.36 4.6875 1390.36 4.6875C1389.32 4.6875 1388.74 5.16602 1388.73 5.82227C1388.73 6.54004 1389.46 6.86133 1390.32 7.05273L1391.21 7.27148C1392.9 7.66113 1394.17 8.52246 1394.17 10.1699C1394.17 11.9814 1392.76 13.1436 1390.35 13.1367C1387.95 13.1436 1386.43 12.0361 1386.37 9.91016H1388.36C1388.43 10.9082 1389.22 11.4141 1390.32 11.4141C1391.4 11.4141 1392.1 10.9082 1392.1 10.1699C1392.1 9.49316 1391.48 9.17871 1390.4 8.91211L1389.32 8.65234C1387.65 8.24219 1386.63 7.4082 1386.63 5.95898C1386.62 4.16113 1388.21 2.96484 1390.37 2.96484C1392.57 2.96484 1394.01 4.18164 1394.04 5.93164H1392.07ZM1395.13 4.79688V3.10156H1403.24V4.79688H1400.2V13H1398.17V4.79688H1395.13ZM1404.51 13V3.10156H1408.39C1410.64 3.10156 1411.93 4.36621 1411.93 6.32812C1411.93 7.68164 1411.31 8.66602 1410.18 9.15137L1412.29 13H1410.02L1408.13 9.48633H1406.56V13H1404.51ZM1406.56 7.81836H1408.01C1409.23 7.81836 1409.82 7.31934 1409.81 6.32812C1409.82 5.33008 1409.23 4.79004 1408.01 4.7832H1406.56V7.81836ZM1415.01 13H1412.79L1416.23 3.10156H1418.87L1422.28 13H1420.08L1419.34 10.7168H1415.75L1415.01 13ZM1416.27 9.11719H1418.82L1417.58 5.33008H1417.51L1416.27 9.11719ZM1421.8 4.79688V3.10156H1429.91V4.79688H1426.88V13H1424.84V4.79688H1421.8ZM1433.23 3.10156V13H1431.18V3.10156H1433.23ZM1443.97 8.05078C1443.97 11.2842 1441.96 13.1367 1439.35 13.1367C1436.71 13.1367 1434.71 11.2705 1434.71 8.05078C1434.71 4.81738 1436.71 2.96484 1439.35 2.96484C1441.96 2.96484 1443.97 4.81738 1443.97 8.05078ZM1436.8 8.05078C1436.8 10.1631 1437.81 11.3115 1439.35 11.3184C1440.87 11.3115 1441.88 10.1631 1441.88 8.05078C1441.88 5.93164 1440.87 4.79004 1439.35 4.7832C1437.81 4.79004 1436.8 5.93164 1436.8 8.05078ZM1453.7 3.10156V13H1451.92L1447.58 6.71094H1447.49V13H1445.44V3.10156H1447.25L1451.57 9.39062H1451.66V3.10156H1453.7Z" fill="white"/>
<path d="M1483.45 6.54688C1483.29 5.45312 1482.45 4.79004 1481.29 4.7832C1479.75 4.79004 1478.73 5.96582 1478.73 8.05078C1478.73 10.1836 1479.77 11.3115 1481.28 11.3184C1482.41 11.3115 1483.25 10.6963 1483.45 9.62305L1485.53 9.63672C1485.3 11.4688 1483.77 13.1367 1481.25 13.1367C1478.6 13.1367 1476.64 11.2705 1476.64 8.05078C1476.64 4.81738 1478.64 2.96484 1481.25 2.96484C1483.53 2.96484 1485.26 4.27051 1485.53 6.54688H1483.45ZM1486.96 13V3.10156H1489.02V7.20312H1493.31V3.10156H1495.37V13H1493.31V8.89844H1489.02V13H1486.96ZM1498.7 13H1496.48L1499.91 3.10156H1502.55L1505.97 13H1503.77L1503.02 10.7168H1499.44L1498.7 13ZM1499.96 9.11719H1502.5L1501.27 5.33008H1501.2L1499.96 9.11719ZM1507.09 13V3.10156H1510.97C1513.22 3.10156 1514.51 4.36621 1514.51 6.32812C1514.51 7.68164 1513.89 8.66602 1512.76 9.15137L1514.87 13H1512.6L1510.71 9.48633H1509.14V13H1507.09ZM1509.14 7.81836H1510.59C1511.81 7.81836 1512.4 7.31934 1512.39 6.32812C1512.4 5.33008 1511.81 4.79004 1510.59 4.7832H1509.14V7.81836ZM1517.59 13H1515.38L1518.81 3.10156H1521.45L1524.86 13H1522.66L1521.92 10.7168H1518.33L1517.59 13ZM1518.85 9.11719H1521.4L1520.16 5.33008H1520.09L1518.85 9.11719ZM1532.14 6.54688C1531.97 5.45312 1531.13 4.79004 1529.98 4.7832C1528.44 4.79004 1527.42 5.96582 1527.42 8.05078C1527.42 10.1836 1528.45 11.3115 1529.96 11.3184C1531.09 11.3115 1531.94 10.6963 1532.14 9.62305L1534.21 9.63672C1533.99 11.4688 1532.45 13.1367 1529.94 13.1367C1527.29 13.1367 1525.33 11.2705 1525.33 8.05078C1525.33 4.81738 1527.32 2.96484 1529.94 2.96484C1532.22 2.96484 1533.94 4.27051 1534.21 6.54688H1532.14ZM1535.27 4.79688V3.10156H1543.38V4.79688H1540.34V13H1538.3V4.79688H1535.27ZM1544.65 13V3.10156H1551.29V4.79688H1546.7V7.20312H1550.95V8.89844H1546.7V11.3047H1551.3V13H1544.65ZM1552.89 13V3.10156H1556.77C1559.02 3.10156 1560.31 4.36621 1560.31 6.32812C1560.31 7.68164 1559.69 8.66602 1558.56 9.15137L1560.67 13H1558.4L1556.51 9.48633H1554.94V13H1552.89ZM1554.94 7.81836H1556.39C1557.61 7.81836 1558.2 7.31934 1558.2 6.32812C1558.2 5.33008 1557.61 4.79004 1556.39 4.7832H1554.94V7.81836ZM1568.45 13H1564.96V3.10156H1568.49C1571.47 3.10156 1573.3 4.9541 1573.29 8.03711C1573.3 11.1338 1571.47 13 1568.45 13ZM1567.01 11.2363H1568.37C1570.25 11.2363 1571.24 10.2588 1571.24 8.03711C1571.24 5.83594 1570.25 4.86523 1568.38 4.86523H1567.01V11.2363ZM1574.78 13V3.10156H1581.42V4.79688H1576.83V7.20312H1581.08V8.89844H1576.83V11.3047H1581.44V13H1574.78ZM1588.4 5.93164C1588.31 5.14551 1587.69 4.6875 1586.69 4.6875C1585.65 4.6875 1585.07 5.16602 1585.06 5.82227C1585.05 6.54004 1585.79 6.86133 1586.65 7.05273L1587.54 7.27148C1589.23 7.66113 1590.5 8.52246 1590.5 10.1699C1590.5 11.9814 1589.09 13.1436 1586.67 13.1367C1584.28 13.1436 1582.76 12.0361 1582.7 9.91016H1584.69C1584.76 10.9082 1585.55 11.4141 1586.65 11.4141C1587.73 11.4141 1588.42 10.9082 1588.42 10.1699C1588.42 9.49316 1587.81 9.17871 1586.73 8.91211L1585.65 8.65234C1583.98 8.24219 1582.96 7.4082 1582.96 5.95898C1582.95 4.16113 1584.53 2.96484 1586.7 2.96484C1588.9 2.96484 1590.34 4.18164 1590.37 5.93164H1588.4ZM1593.89 3.10156V13H1591.84V3.10156H1593.89ZM1602.14 6.28711C1601.86 5.35742 1601.11 4.79004 1600.03 4.7832C1598.5 4.79004 1597.46 5.95898 1597.46 8.03711C1597.46 10.1289 1598.47 11.3115 1600.04 11.3184C1601.46 11.3115 1602.3 10.5117 1602.33 9.26758H1600.18V7.72266H1604.31V8.95312C1604.31 11.5508 1602.53 13.1367 1600.03 13.1367C1597.26 13.1367 1595.37 11.1953 1595.37 8.06445C1595.37 4.85156 1597.38 2.96484 1599.99 2.96484C1602.23 2.96484 1603.94 4.33887 1604.21 6.28711H1602.14ZM1614.07 3.10156V13H1612.29L1607.95 6.71094H1607.87V13H1605.81V3.10156H1607.62L1611.94 9.39062H1612.04V3.10156H1614.07Z" fill="white"/>
<path d="M1636.83 13V3.10156H1638.88V7.49023H1639.02L1642.62 3.10156H1645.09L1641.4 7.53125L1645.13 13H1642.67L1639.92 8.91211L1638.88 10.1699V13H1636.83ZM1646.12 13V3.10156H1652.76V4.79688H1648.17V7.20312H1652.42V8.89844H1648.17V11.3047H1652.78V13H1646.12ZM1653.76 3.10156H1656.07L1658.35 7.36719H1658.45L1660.72 3.10156H1663.03L1659.42 9.47266V13H1657.37V9.47266L1653.76 3.10156ZM1669.06 3.10156L1671.46 10.6484H1671.56L1673.98 3.10156H1676.25L1672.83 13H1670.19L1666.76 3.10156H1669.06ZM1679.42 3.10156V13H1677.37V3.10156H1679.42ZM1686.46 5.93164C1686.38 5.14551 1685.76 4.6875 1684.75 4.6875C1683.71 4.6875 1683.13 5.16602 1683.13 5.82227C1683.12 6.54004 1683.86 6.86133 1684.71 7.05273L1685.6 7.27148C1687.3 7.66113 1688.56 8.52246 1688.57 10.1699C1688.56 11.9814 1687.15 13.1436 1684.74 13.1367C1682.35 13.1436 1680.82 12.0361 1680.76 9.91016H1682.76C1682.83 10.9082 1683.62 11.4141 1684.71 11.4141C1685.79 11.4141 1686.49 10.9082 1686.49 10.1699C1686.49 9.49316 1685.88 9.17871 1684.79 8.91211L1683.71 8.65234C1682.05 8.24219 1681.02 7.4082 1681.02 5.95898C1681.01 4.16113 1682.6 2.96484 1684.77 2.96484C1686.96 2.96484 1688.4 4.18164 1688.43 5.93164H1686.46ZM1696.03 3.10156H1698.1V9.52734C1698.1 11.6943 1696.45 13.1436 1694 13.1367C1691.54 13.1436 1689.91 11.6943 1689.91 9.52734V3.10156H1691.96V9.36328C1691.97 10.5049 1692.77 11.3252 1694 11.332C1695.23 11.3252 1696.04 10.5049 1696.03 9.36328V3.10156ZM1701.42 13H1699.21L1702.64 3.10156H1705.28L1708.69 13H1706.49L1705.75 10.7168H1702.17L1701.42 13ZM1702.68 9.11719H1705.23L1703.99 5.33008H1703.92L1702.68 9.11719ZM1709.81 13V3.10156H1711.87V11.3047H1716.13V13H1709.81Z" fill="white"/>
<path d="M1745.45 6.54688C1745.29 5.45312 1744.45 4.79004 1743.29 4.7832C1741.75 4.79004 1740.73 5.96582 1740.73 8.05078C1740.73 10.1836 1741.77 11.3115 1743.28 11.3184C1744.41 11.3115 1745.25 10.6963 1745.45 9.62305L1747.53 9.63672C1747.3 11.4688 1745.77 13.1367 1743.25 13.1367C1740.6 13.1367 1738.64 11.2705 1738.64 8.05078C1738.64 4.81738 1740.64 2.96484 1743.25 2.96484C1745.53 2.96484 1747.26 4.27051 1747.53 6.54688H1745.45ZM1758.03 8.05078C1758.03 11.2842 1756.03 13.1367 1753.41 13.1367C1750.77 13.1367 1748.77 11.2705 1748.77 8.05078C1748.77 4.81738 1750.77 2.96484 1753.41 2.96484C1756.03 2.96484 1758.03 4.81738 1758.03 8.05078ZM1750.87 8.05078C1750.87 10.1631 1751.87 11.3115 1753.41 11.3184C1754.93 11.3115 1755.94 10.1631 1755.94 8.05078C1755.94 5.93164 1754.93 4.79004 1753.41 4.7832C1751.87 4.79004 1750.87 5.93164 1750.87 8.05078ZM1767.76 3.10156V13H1765.99L1761.64 6.71094H1761.56V13H1759.51V3.10156H1761.31L1765.63 9.39062H1765.73V3.10156H1767.76ZM1776.05 6.54688C1775.88 5.45312 1775.04 4.79004 1773.89 4.7832C1772.35 4.79004 1771.33 5.96582 1771.33 8.05078C1771.33 10.1836 1772.36 11.3115 1773.88 11.3184C1775 11.3115 1775.85 10.6963 1776.05 9.62305L1778.13 9.63672C1777.9 11.4688 1776.36 13.1367 1773.85 13.1367C1771.2 13.1367 1769.24 11.2705 1769.24 8.05078C1769.24 4.81738 1771.24 2.96484 1773.85 2.96484C1776.13 2.96484 1777.85 4.27051 1778.13 6.54688H1776.05ZM1779.56 13V3.10156H1786.21V4.79688H1781.61V7.20312H1785.87V8.89844H1781.61V11.3047H1786.22V13H1779.56ZM1787.81 13V3.10156H1791.69C1793.94 3.10156 1795.23 4.48926 1795.23 6.4375C1795.23 8.41309 1793.92 9.77344 1791.63 9.77344H1789.86V13H1787.81ZM1789.86 8.11914H1791.31C1792.52 8.11914 1793.12 7.43555 1793.11 6.4375C1793.12 5.45312 1792.52 4.79004 1791.31 4.7832H1789.86V8.11914ZM1796.15 4.79688V3.10156H1804.25V4.79688H1801.22V13H1799.18V4.79688H1796.15ZM1810.41 13H1808.19L1811.62 3.10156H1814.26L1817.68 13H1815.48L1814.73 10.7168H1811.15L1810.41 13ZM1811.67 9.11719H1814.21L1812.98 5.33008H1812.91L1811.67 9.11719ZM1818.8 13V3.10156H1822.68C1824.93 3.10156 1826.22 4.36621 1826.22 6.32812C1826.22 7.68164 1825.6 8.66602 1824.47 9.15137L1826.58 13H1824.31L1822.42 9.48633H1820.85V13H1818.8ZM1820.85 7.81836H1822.3C1823.52 7.81836 1824.11 7.31934 1824.11 6.32812C1824.11 5.33008 1823.52 4.79004 1822.3 4.7832H1820.85V7.81836ZM1827.26 4.79688V3.10156H1835.37V4.79688H1832.34V13H1830.3V4.79688H1827.26Z" fill="white"/>
<path d="M1857.83 3.10156H1860.38L1863.12 9.81445H1863.23L1865.98 3.10156H1868.53V13H1866.53V6.51953H1866.45L1863.86 12.959H1862.5L1859.91 6.49219H1859.83V13H1857.83V3.10156ZM1870.19 13V3.10156H1876.84V4.79688H1872.24V7.20312H1876.5V8.89844H1872.24V11.3047H1876.85V13H1870.19ZM1881.92 13H1878.44V3.10156H1881.96C1884.95 3.10156 1886.77 4.9541 1886.76 8.03711C1886.77 11.1338 1884.95 13 1881.92 13ZM1880.49 11.2363H1881.84C1883.73 11.2363 1884.71 10.2588 1884.71 8.03711C1884.71 5.83594 1883.73 4.86523 1881.86 4.86523H1880.49V11.2363ZM1890.3 3.10156V13H1888.25V3.10156H1890.3ZM1893.63 13H1891.41L1894.84 3.10156H1897.48L1900.9 13H1898.7L1897.95 10.7168H1894.37L1893.63 13ZM1894.89 9.11719H1897.43L1896.2 5.33008H1896.13L1894.89 9.11719ZM1906.9 13H1904.69L1908.12 3.10156H1910.76L1914.18 13H1911.97L1911.23 10.7168H1907.65L1906.9 13ZM1908.17 9.11719H1910.71L1909.47 5.33008H1909.4L1908.17 9.11719ZM1915.3 13V3.10156H1919.18C1921.43 3.10156 1922.72 4.36621 1922.72 6.32812C1922.72 7.68164 1922.1 8.66602 1920.97 9.15137L1923.08 13H1920.81L1918.91 9.48633H1917.35V13H1915.3ZM1917.35 7.81836H1918.8C1920.01 7.81836 1920.61 7.31934 1920.6 6.32812C1920.61 5.33008 1920.01 4.79004 1918.8 4.7832H1917.35V7.81836ZM1923.76 4.79688V3.10156H1931.87V4.79688H1928.83V13H1926.79V4.79688H1923.76Z" fill="white"/>
<path d="M1961.45 6.54688C1961.29 5.45312 1960.45 4.79004 1959.29 4.7832C1957.75 4.79004 1956.73 5.96582 1956.73 8.05078C1956.73 10.1836 1957.77 11.3115 1959.28 11.3184C1960.41 11.3115 1961.25 10.6963 1961.45 9.62305L1963.53 9.63672C1963.3 11.4688 1961.77 13.1367 1959.25 13.1367C1956.6 13.1367 1954.64 11.2705 1954.64 8.05078C1954.64 4.81738 1956.64 2.96484 1959.25 2.96484C1961.53 2.96484 1963.26 4.27051 1963.53 6.54688H1961.45ZM1974.03 8.05078C1974.03 11.2842 1972.03 13.1367 1969.41 13.1367C1966.77 13.1367 1964.77 11.2705 1964.77 8.05078C1964.77 4.81738 1966.77 2.96484 1969.41 2.96484C1972.03 2.96484 1974.03 4.81738 1974.03 8.05078ZM1966.87 8.05078C1966.87 10.1631 1967.87 11.3115 1969.41 11.3184C1970.93 11.3115 1971.94 10.1631 1971.94 8.05078C1971.94 5.93164 1970.93 4.79004 1969.41 4.7832C1967.87 4.79004 1966.87 5.93164 1966.87 8.05078ZM1975.51 3.10156H1978.05L1980.8 9.81445H1980.91L1983.65 3.10156H1986.2V13H1984.2V6.51953H1984.12L1981.54 12.959H1980.17L1977.58 6.49219H1977.5V13H1975.51V3.10156ZM1989.92 3.10156V13H1987.87V3.10156H1989.92ZM1998.2 6.54688C1998.04 5.45312 1997.2 4.79004 1996.04 4.7832C1994.5 4.79004 1993.48 5.96582 1993.48 8.05078C1993.48 10.1836 1994.52 11.3115 1996.03 11.3184C1997.16 11.3115 1998 10.6963 1998.2 9.62305L2000.28 9.63672C2000.05 11.4688 1998.52 13.1367 1996 13.1367C1993.35 13.1367 1991.39 11.2705 1991.39 8.05078C1991.39 4.81738 1993.39 2.96484 1996 2.96484C1998.28 2.96484 2000.01 4.27051 2000.28 6.54688H1998.2ZM2007.09 5.93164C2007.01 5.14551 2006.38 4.6875 2005.38 4.6875C2004.34 4.6875 2003.76 5.16602 2003.75 5.82227C2003.75 6.54004 2004.48 6.86133 2005.34 7.05273L2006.23 7.27148C2007.92 7.66113 2009.19 8.52246 2009.19 10.1699C2009.19 11.9814 2007.78 13.1436 2005.37 13.1367C2002.97 13.1436 2001.45 12.0361 2001.39 9.91016H2003.38C2003.45 10.9082 2004.24 11.4141 2005.34 11.4141C2006.42 11.4141 2007.12 10.9082 2007.12 10.1699C2007.12 9.49316 2006.5 9.17871 2005.42 8.91211L2004.34 8.65234C2002.67 8.24219 2001.65 7.4082 2001.65 5.95898C2001.64 4.16113 2003.23 2.96484 2005.39 2.96484C2007.59 2.96484 2009.03 4.18164 2009.06 5.93164H2007.09Z" fill="white"/>
<path d="M2033.49 13H2031.27L2034.71 3.10156H2037.34L2040.76 13H2038.56L2037.82 10.7168H2034.23L2033.49 13ZM2034.75 9.11719H2037.3L2036.06 5.33008H2035.99L2034.75 9.11719ZM2050.14 3.10156V13H2048.36L2044.02 6.71094H2043.93V13H2041.88V3.10156H2043.69L2048.01 9.39062H2048.1V3.10156H2050.14ZM2053.86 3.10156V13H2051.81V3.10156H2053.86ZM2055.53 3.10156H2058.07L2060.82 9.81445H2060.93L2063.68 3.10156H2066.22V13H2064.22V6.51953H2064.14L2061.56 12.959H2060.19L2057.61 6.49219H2057.52V13H2055.53V3.10156ZM2069.54 13H2067.33L2070.76 3.10156H2073.4L2076.81 13H2074.61L2073.87 10.7168H2070.29L2069.54 13ZM2070.81 9.11719H2073.35L2072.11 5.33008H2072.04L2070.81 9.11719ZM2076.34 4.79688V3.10156H2084.44V4.79688H2081.41V13H2079.37V4.79688H2076.34ZM2087.77 3.10156V13H2085.71V3.10156H2087.77ZM2098.5 8.05078C2098.5 11.2842 2096.5 13.1367 2093.88 13.1367C2091.24 13.1367 2089.24 11.2705 2089.24 8.05078C2089.24 4.81738 2091.24 2.96484 2093.88 2.96484C2096.5 2.96484 2098.5 4.81738 2098.5 8.05078ZM2091.33 8.05078C2091.33 10.1631 2092.34 11.3115 2093.88 11.3184C2095.4 11.3115 2096.41 10.1631 2096.41 8.05078C2096.41 5.93164 2095.4 4.79004 2093.88 4.7832C2092.34 4.79004 2091.33 5.93164 2091.33 8.05078ZM2108.23 3.10156V13H2106.46L2102.11 6.71094H2102.03V13H2099.97V3.10156H2101.78L2106.1 9.39062H2106.2V3.10156H2108.23Z" fill="white"/>
<path d="M2131.83 3.10156H2134.38L2137.12 9.81445H2137.23L2139.98 3.10156H2142.53V13H2140.53V6.51953H2140.45L2137.86 12.959H2136.5L2133.91 6.49219H2133.83V13H2131.83V3.10156ZM2153.26 8.05078C2153.26 11.2842 2151.25 13.1367 2148.64 13.1367C2146 13.1367 2144 11.2705 2144 8.05078C2144 4.81738 2146 2.96484 2148.64 2.96484C2151.25 2.96484 2153.26 4.81738 2153.26 8.05078ZM2146.09 8.05078C2146.09 10.1631 2147.1 11.3115 2148.64 11.3184C2150.16 11.3115 2151.17 10.1631 2151.17 8.05078C2151.17 5.93164 2150.16 4.79004 2148.64 4.7832C2147.1 4.79004 2146.09 5.93164 2146.09 8.05078ZM2153.91 4.79688V3.10156H2162.02V4.79688H2158.99V13H2156.95V4.79688H2153.91ZM2165.34 3.10156V13H2163.29V3.10156H2165.34ZM2176.08 8.05078C2176.08 11.2842 2174.07 13.1367 2171.46 13.1367C2168.82 13.1367 2166.82 11.2705 2166.82 8.05078C2166.82 4.81738 2168.82 2.96484 2171.46 2.96484C2174.07 2.96484 2176.08 4.81738 2176.08 8.05078ZM2168.91 8.05078C2168.91 10.1631 2169.92 11.3115 2171.46 11.3184C2172.98 11.3115 2173.99 10.1631 2173.98 8.05078C2173.99 5.93164 2172.98 4.79004 2171.46 4.7832C2169.92 4.79004 2168.91 5.93164 2168.91 8.05078ZM2185.81 3.10156V13H2184.03L2179.69 6.71094H2179.6V13H2177.55V3.10156H2179.36L2183.68 9.39062H2183.77V3.10156H2185.81ZM2197.28 6.28711C2197 5.35742 2196.26 4.79004 2195.18 4.7832C2193.64 4.79004 2192.61 5.95898 2192.61 8.03711C2192.61 10.1289 2193.61 11.3115 2195.19 11.3184C2196.6 11.3115 2197.45 10.5117 2197.47 9.26758H2195.33V7.72266H2199.46V8.95312C2199.46 11.5508 2197.67 13.1367 2195.18 13.1367C2192.4 13.1367 2190.51 11.1953 2190.51 8.06445C2190.51 4.85156 2192.52 2.96484 2195.13 2.96484C2197.37 2.96484 2199.09 4.33887 2199.36 6.28711H2197.28ZM2200.96 13V3.10156H2204.84C2207.09 3.10156 2208.38 4.36621 2208.38 6.32812C2208.38 7.68164 2207.76 8.66602 2206.63 9.15137L2208.74 13H2206.47L2204.58 9.48633H2203.01V13H2200.96ZM2203.01 7.81836H2204.46C2205.68 7.81836 2206.27 7.31934 2206.26 6.32812C2206.27 5.33008 2205.68 4.79004 2204.46 4.7832H2203.01V7.81836ZM2211.46 13H2209.24L2212.68 3.10156H2215.31L2218.73 13H2216.53L2215.79 10.7168H2212.2L2211.46 13ZM2212.72 9.11719H2215.27L2214.03 5.33008H2213.96L2212.72 9.11719ZM2219.85 13V3.10156H2223.74C2225.99 3.10156 2227.28 4.48926 2227.28 6.4375C2227.28 8.41309 2225.96 9.77344 2223.68 9.77344H2221.9V13H2219.85ZM2221.9 8.11914H2223.35C2224.57 8.11914 2225.17 7.43555 2225.16 6.4375C2225.17 5.45312 2224.57 4.79004 2223.35 4.7832H2221.9V8.11914ZM2228.58 13V3.10156H2230.63V7.20312H2234.92V3.10156H2236.98V13H2234.92V8.89844H2230.63V13H2228.58ZM2240.7 3.10156V13H2238.65V3.10156H2240.7ZM2248.99 6.54688C2248.82 5.45312 2247.98 4.79004 2246.83 4.7832C2245.29 4.79004 2244.27 5.96582 2244.27 8.05078C2244.27 10.1836 2245.3 11.3115 2246.81 11.3184C2247.94 11.3115 2248.79 10.6963 2248.99 9.62305L2251.07 9.63672C2250.84 11.4688 2249.3 13.1367 2246.79 13.1367C2244.14 13.1367 2242.18 11.2705 2242.18 8.05078C2242.18 4.81738 2244.18 2.96484 2246.79 2.96484C2249.07 2.96484 2250.79 4.27051 2251.07 6.54688H2248.99ZM2257.88 5.93164C2257.79 5.14551 2257.17 4.6875 2256.17 4.6875C2255.13 4.6875 2254.55 5.16602 2254.54 5.82227C2254.53 6.54004 2255.27 6.86133 2256.12 7.05273L2257.01 7.27148C2258.71 7.66113 2259.97 8.52246 2259.98 10.1699C2259.97 11.9814 2258.57 13.1436 2256.15 13.1367C2253.76 13.1436 2252.24 12.0361 2252.17 9.91016H2254.17C2254.24 10.9082 2255.03 11.4141 2256.12 11.4141C2257.21 11.4141 2257.9 10.9082 2257.9 10.1699C2257.9 9.49316 2257.29 9.17871 2256.21 8.91211L2255.13 8.65234C2253.46 8.24219 2252.43 7.4082 2252.43 5.95898C2252.43 4.16113 2254.01 2.96484 2256.18 2.96484C2258.37 2.96484 2259.82 4.18164 2259.84 5.93164H2257.88Z" fill="white"/>
<path d="M2284.88 3.10156V13H2282.83V3.10156H2284.88ZM2286.55 3.10156H2289.1L2291.84 9.81445H2291.95L2294.7 3.10156H2297.24V13H2295.25V6.51953H2295.17L2292.58 12.959H2291.21L2288.63 6.49219H2288.55V13H2286.55V3.10156ZM2300.57 13H2298.35L2301.78 3.10156H2304.42L2307.84 13H2305.64L2304.89 10.7168H2301.31L2300.57 13ZM2301.83 9.11719H2304.37L2303.14 5.33008H2303.07L2301.83 9.11719ZM2315.07 6.28711C2314.79 5.35742 2314.05 4.79004 2312.97 4.7832C2311.44 4.79004 2310.4 5.95898 2310.4 8.03711C2310.4 10.1289 2311.4 11.3115 2312.98 11.3184C2314.4 11.3115 2315.24 10.5117 2315.26 9.26758H2313.12V7.72266H2317.25V8.95312C2317.25 11.5508 2315.46 13.1367 2312.97 13.1367C2310.19 13.1367 2308.3 11.1953 2308.3 8.06445C2308.3 4.85156 2310.31 2.96484 2312.93 2.96484C2315.16 2.96484 2316.88 4.33887 2317.15 6.28711H2315.07ZM2318.75 13V3.10156H2325.39V4.79688H2320.8V7.20312H2325.05V8.89844H2320.8V11.3047H2325.41V13H2318.75ZM2335.25 3.10156V13H2333.47L2329.13 6.71094H2329.04V13H2326.99V3.10156H2328.8L2333.12 9.39062H2333.21V3.10156H2335.25ZM2338.57 13H2336.36L2339.79 3.10156H2342.43L2345.85 13H2343.65L2342.9 10.7168H2339.32L2338.57 13ZM2339.84 9.11719H2342.38L2341.14 5.33008H2341.08L2339.84 9.11719ZM2346.97 13V3.10156H2350.85C2353.1 3.10156 2354.39 4.36621 2354.39 6.32812C2354.39 7.68164 2353.77 8.66602 2352.64 9.15137L2354.75 13H2352.48L2350.58 9.48633H2349.02V13H2346.97ZM2349.02 7.81836H2350.47C2351.69 7.81836 2352.28 7.31934 2352.27 6.32812C2352.28 5.33008 2351.69 4.79004 2350.47 4.7832H2349.02V7.81836ZM2354.8 3.10156H2357.11L2359.4 7.36719H2359.49L2361.76 3.10156H2364.07L2360.46 9.47266V13H2358.41V9.47266L2354.8 3.10156ZM2370.02 13H2367.8L2371.24 3.10156H2373.88L2377.29 13H2375.09L2374.35 10.7168H2370.76L2370.02 13ZM2371.28 9.11719H2373.83L2372.59 5.33008H2372.52L2371.28 9.11719ZM2380.46 3.10156V13H2378.41V3.10156H2380.46ZM2390.73 5.93164C2390.65 5.14551 2390.03 4.6875 2389.02 4.6875C2387.98 4.6875 2387.4 5.16602 2387.4 5.82227C2387.39 6.54004 2388.13 6.86133 2388.98 7.05273L2389.87 7.27148C2391.57 7.66113 2392.83 8.52246 2392.84 10.1699C2392.83 11.9814 2391.42 13.1436 2389.01 13.1367C2386.62 13.1436 2385.09 12.0361 2385.03 9.91016H2387.03C2387.1 10.9082 2387.89 11.4141 2388.98 11.4141C2390.06 11.4141 2390.76 10.9082 2390.76 10.1699C2390.76 9.49316 2390.14 9.17871 2389.06 8.91211L2387.98 8.65234C2386.32 8.24219 2385.29 7.4082 2385.29 5.95898C2385.28 4.16113 2386.87 2.96484 2389.04 2.96484C2391.23 2.96484 2392.67 4.18164 2392.7 5.93164H2390.73ZM2403.24 8.05078C2403.24 11.2842 2401.24 13.1367 2398.62 13.1367C2395.98 13.1367 2393.99 11.2705 2393.99 8.05078C2393.99 4.81738 2395.98 2.96484 2398.62 2.96484C2401.24 2.96484 2403.24 4.81738 2403.24 8.05078ZM2396.08 8.05078C2396.08 10.1631 2397.08 11.3115 2398.62 11.3184C2400.15 11.3115 2401.16 10.1631 2401.15 8.05078C2401.16 5.93164 2400.15 4.79004 2398.62 4.7832C2397.08 4.79004 2396.08 5.93164 2396.08 8.05078ZM2404.72 13V3.10156H2406.77V11.3047H2411.04V13H2404.72ZM2418.49 3.10156H2420.55V9.52734C2420.55 11.6943 2418.9 13.1436 2416.45 13.1367C2413.99 13.1436 2412.36 11.6943 2412.36 9.52734V3.10156H2414.41V9.36328C2414.42 10.5049 2415.23 11.3252 2416.45 11.332C2417.69 11.3252 2418.49 10.5049 2418.49 9.36328V3.10156ZM2421.84 4.79688V3.10156H2429.94V4.79688H2426.91V13H2424.87V4.79688H2421.84ZM2433.27 3.10156V13H2431.21V3.10156H2433.27ZM2444 8.05078C2444 11.2842 2442 13.1367 2439.38 13.1367C2436.74 13.1367 2434.74 11.2705 2434.74 8.05078C2434.74 4.81738 2436.74 2.96484 2439.38 2.96484C2442 2.96484 2444 4.81738 2444 8.05078ZM2436.83 8.05078C2436.83 10.1631 2437.84 11.3115 2439.38 11.3184C2440.9 11.3115 2441.91 10.1631 2441.91 8.05078C2441.91 5.93164 2440.9 4.79004 2439.38 4.7832C2437.84 4.79004 2436.83 5.93164 2436.83 8.05078ZM2453.73 3.10156V13H2451.96L2447.61 6.71094H2447.53V13H2445.47V3.10156H2447.28L2451.6 9.39062H2451.7V3.10156H2453.73ZM2460.77 5.93164C2460.69 5.14551 2460.07 4.6875 2459.06 4.6875C2458.03 4.6875 2457.44 5.16602 2457.44 5.82227C2457.43 6.54004 2458.17 6.86133 2459.02 7.05273L2459.91 7.27148C2461.61 7.66113 2462.87 8.52246 2462.88 10.1699C2462.87 11.9814 2461.46 13.1436 2459.05 13.1367C2456.66 13.1436 2455.13 12.0361 2455.07 9.91016H2457.07C2457.14 10.9082 2457.93 11.4141 2459.02 11.4141C2460.1 11.4141 2460.8 10.9082 2460.8 10.1699C2460.8 9.49316 2460.19 9.17871 2459.11 8.91211L2458.03 8.65234C2456.36 8.24219 2455.33 7.4082 2455.33 5.95898C2455.33 4.16113 2456.91 2.96484 2459.08 2.96484C2461.27 2.96484 2462.71 4.18164 2462.74 5.93164H2460.77Z" fill="white"/>
<path d="M2491.21 5.93164C2491.12 5.14551 2490.5 4.6875 2489.5 4.6875C2488.46 4.6875 2487.88 5.16602 2487.87 5.82227C2487.86 6.54004 2488.6 6.86133 2489.46 7.05273L2490.35 7.27148C2492.04 7.66113 2493.31 8.52246 2493.31 10.1699C2493.31 11.9814 2491.9 13.1436 2489.48 13.1367C2487.09 13.1436 2485.57 12.0361 2485.51 9.91016H2487.5C2487.57 10.9082 2488.36 11.4141 2489.46 11.4141C2490.54 11.4141 2491.23 10.9082 2491.23 10.1699C2491.23 9.49316 2490.62 9.17871 2489.54 8.91211L2488.46 8.65234C2486.79 8.24219 2485.77 7.4082 2485.77 5.95898C2485.76 4.16113 2487.34 2.96484 2489.51 2.96484C2491.71 2.96484 2493.15 4.18164 2493.18 5.93164H2491.21ZM2494.27 4.79688V3.10156H2502.38V4.79688H2499.34V13H2497.3V4.79688H2494.27ZM2512.28 8.05078C2512.28 11.2842 2510.27 13.1367 2507.65 13.1367C2505.02 13.1367 2503.02 11.2705 2503.02 8.05078C2503.02 4.81738 2505.02 2.96484 2507.65 2.96484C2510.27 2.96484 2512.28 4.81738 2512.28 8.05078ZM2505.11 8.05078C2505.11 10.1631 2506.12 11.3115 2507.65 11.3184C2509.18 11.3115 2510.19 10.1631 2510.18 8.05078C2510.19 5.93164 2509.18 4.79004 2507.65 4.7832C2506.12 4.79004 2505.11 5.93164 2505.11 8.05078ZM2513.75 13V3.10156H2517.63C2519.88 3.10156 2521.18 4.36621 2521.18 6.32812C2521.18 7.68164 2520.55 8.66602 2519.43 9.15137L2521.53 13H2519.26L2517.37 9.48633H2515.8V13H2513.75ZM2515.8 7.81836H2517.25C2518.47 7.81836 2519.06 7.31934 2519.06 6.32812C2519.06 5.33008 2518.47 4.79004 2517.25 4.7832H2515.8V7.81836ZM2521.59 3.10156H2523.9L2526.18 7.36719H2526.28L2528.54 3.10156H2530.86L2527.25 9.47266V13H2525.2V9.47266L2521.59 3.10156ZM2531.92 13V3.10156H2535.86C2538.04 3.10156 2539.15 4.1543 2539.14 5.64453C2539.15 6.80664 2538.38 7.53809 2537.36 7.76367V7.85938C2538.48 7.91406 2539.53 8.80273 2539.54 10.2656C2539.53 11.8379 2538.35 13 2536.12 13H2531.92ZM2533.97 11.3047H2535.71C2536.9 11.3115 2537.41 10.8193 2537.4 10.0742C2537.41 9.24023 2536.78 8.65234 2535.76 8.65234H2533.97V11.3047ZM2533.97 7.24414H2535.56C2536.42 7.25098 2537.07 6.76562 2537.06 5.97266C2537.07 5.25488 2536.54 4.76953 2535.6 4.76953H2533.97V7.24414ZM2549.9 8.05078C2549.9 11.2842 2547.9 13.1367 2545.28 13.1367C2542.64 13.1367 2540.64 11.2705 2540.64 8.05078C2540.64 4.81738 2542.64 2.96484 2545.28 2.96484C2547.9 2.96484 2549.9 4.81738 2549.9 8.05078ZM2542.74 8.05078C2542.74 10.1631 2543.74 11.3115 2545.28 11.3184C2546.8 11.3115 2547.82 10.1631 2547.81 8.05078C2547.82 5.93164 2546.8 4.79004 2545.28 4.7832C2543.74 4.79004 2542.74 5.93164 2542.74 8.05078ZM2552.47 13H2550.26L2553.69 3.10156H2556.33L2559.74 13H2557.54L2556.8 10.7168H2553.22L2552.47 13ZM2553.74 9.11719H2556.28L2555.04 5.33008H2554.97L2553.74 9.11719ZM2560.87 13V3.10156H2564.75C2567 3.10156 2568.29 4.36621 2568.29 6.32812C2568.29 7.68164 2567.67 8.66602 2566.54 9.15137L2568.64 13H2566.38L2564.48 9.48633H2562.92V13H2560.87ZM2562.92 7.81836H2564.37C2565.58 7.81836 2566.18 7.31934 2566.17 6.32812C2566.18 5.33008 2565.58 4.79004 2564.37 4.7832H2562.92V7.81836ZM2573.2 13H2569.71V3.10156H2573.24C2576.22 3.10156 2578.04 4.9541 2578.04 8.03711C2578.04 11.1338 2576.22 13 2573.2 13ZM2571.76 11.2363H2573.12C2575 11.2363 2575.99 10.2588 2575.99 8.03711C2575.99 5.83594 2575 4.86523 2573.13 4.86523H2571.76V11.2363Z" fill="white"/>
<path d="M2600.83 13V3.10156H2602.88V11.3047H2607.15V13H2600.83ZM2617.14 8.05078C2617.14 11.2842 2615.14 13.1367 2612.52 13.1367C2609.88 13.1367 2607.89 11.2705 2607.89 8.05078C2607.89 4.81738 2609.88 2.96484 2612.52 2.96484C2615.14 2.96484 2617.14 4.81738 2617.14 8.05078ZM2609.98 8.05078C2609.98 10.1631 2610.99 11.3115 2612.52 11.3184C2614.05 11.3115 2615.06 10.1631 2615.05 8.05078C2615.06 5.93164 2614.05 4.79004 2612.52 4.7832C2610.99 4.79004 2609.98 5.93164 2609.98 8.05078ZM2625.2 6.28711C2624.92 5.35742 2624.17 4.79004 2623.09 4.7832C2621.56 4.79004 2620.52 5.95898 2620.52 8.03711C2620.52 10.1289 2621.53 11.3115 2623.11 11.3184C2624.52 11.3115 2625.36 10.5117 2625.39 9.26758H2623.24V7.72266H2627.37V8.95312C2627.37 11.5508 2625.59 13.1367 2623.09 13.1367C2620.32 13.1367 2618.43 11.1953 2618.43 8.06445C2618.43 4.85156 2620.44 2.96484 2623.05 2.96484C2625.29 2.96484 2627 4.33887 2627.28 6.28711H2625.2ZM2637.94 8.05078C2637.94 11.2842 2635.94 13.1367 2633.32 13.1367C2630.68 13.1367 2628.68 11.2705 2628.68 8.05078C2628.68 4.81738 2630.68 2.96484 2633.32 2.96484C2635.94 2.96484 2637.94 4.81738 2637.94 8.05078ZM2630.78 8.05078C2630.78 10.1631 2631.78 11.3115 2633.32 11.3184C2634.84 11.3115 2635.85 10.1631 2635.85 8.05078C2635.85 5.93164 2634.84 4.79004 2633.32 4.7832C2631.78 4.79004 2630.78 5.93164 2630.78 8.05078ZM2646.13 13H2642.64V3.10156H2646.17C2649.15 3.10156 2650.98 4.9541 2650.97 8.03711C2650.98 11.1338 2649.15 13 2646.13 13ZM2644.69 11.2363H2646.05C2647.93 11.2363 2648.92 10.2588 2648.92 8.03711C2648.92 5.83594 2647.93 4.86523 2646.06 4.86523H2644.69V11.2363ZM2652.46 13V3.10156H2659.1V4.79688H2654.51V7.20312H2658.76V8.89844H2654.51V11.3047H2659.12V13H2652.46ZM2666.08 5.93164C2665.99 5.14551 2665.37 4.6875 2664.37 4.6875C2663.33 4.6875 2662.75 5.16602 2662.74 5.82227C2662.73 6.54004 2663.47 6.86133 2664.33 7.05273L2665.21 7.27148C2666.91 7.66113 2668.17 8.52246 2668.18 10.1699C2668.17 11.9814 2666.77 13.1436 2664.35 13.1367C2661.96 13.1436 2660.44 12.0361 2660.38 9.91016H2662.37C2662.44 10.9082 2663.23 11.4141 2664.33 11.4141C2665.41 11.4141 2666.1 10.9082 2666.1 10.1699C2666.1 9.49316 2665.49 9.17871 2664.41 8.91211L2663.33 8.65234C2661.66 8.24219 2660.63 7.4082 2660.63 5.95898C2660.63 4.16113 2662.21 2.96484 2664.38 2.96484C2666.58 2.96484 2668.02 4.18164 2668.04 5.93164H2666.08ZM2671.57 3.10156V13H2669.52V3.10156H2671.57ZM2679.82 6.28711C2679.54 5.35742 2678.79 4.79004 2677.71 4.7832C2676.18 4.79004 2675.14 5.95898 2675.14 8.03711C2675.14 10.1289 2676.15 11.3115 2677.72 11.3184C2679.14 11.3115 2679.98 10.5117 2680.01 9.26758H2677.86V7.72266H2681.99V8.95312C2681.99 11.5508 2680.21 13.1367 2677.71 13.1367C2674.94 13.1367 2673.05 11.1953 2673.05 8.06445C2673.05 4.85156 2675.06 2.96484 2677.67 2.96484C2679.91 2.96484 2681.62 4.33887 2681.89 6.28711H2679.82ZM2691.75 3.10156V13H2689.97L2685.63 6.71094H2685.54V13H2683.49V3.10156H2685.3L2689.62 9.39062H2689.71V3.10156H2691.75Z" fill="white"/>
<path d="M1465.49 10.8945C1464.46 10.8945 1463.64 10.0742 1463.64 9.04883C1463.64 8.03711 1464.46 7.2168 1465.49 7.2168C1466.5 7.2168 1467.32 8.03711 1467.32 9.04883C1467.32 10.0742 1466.5 10.8945 1465.49 10.8945Z" fill="white"/>
<path d="M1346.49 10.8945C1345.46 10.8945 1344.64 10.0742 1344.64 9.04883C1344.64 8.03711 1345.46 7.2168 1346.49 7.2168C1347.5 7.2168 1348.32 8.03711 1348.32 9.04883C1348.32 10.0742 1347.5 10.8945 1346.49 10.8945Z" fill="white"/>
<path d="M1625.49 10.8945C1624.46 10.8945 1623.64 10.0742 1623.64 9.04883C1623.64 8.03711 1624.46 7.2168 1625.49 7.2168C1626.5 7.2168 1627.32 8.03711 1627.32 9.04883C1627.32 10.0742 1626.5 10.8945 1625.49 10.8945Z" fill="white"/>
<path d="M1727.49 10.8945C1726.46 10.8945 1725.64 10.0742 1725.64 9.04883C1725.64 8.03711 1726.46 7.2168 1727.49 7.2168C1728.5 7.2168 1729.32 8.03711 1729.32 9.04883C1729.32 10.0742 1728.5 10.8945 1727.49 10.8945Z" fill="white"/>
<path d="M1846.49 10.8945C1845.46 10.8945 1844.64 10.0742 1844.64 9.04883C1844.64 8.03711 1845.46 7.2168 1846.49 7.2168C1847.5 7.2168 1848.32 8.03711 1848.32 9.04883C1848.32 10.0742 1847.5 10.8945 1846.49 10.8945Z" fill="white"/>
<path d="M1943.49 10.8945C1942.46 10.8945 1941.64 10.0742 1941.64 9.04883C1941.64 8.03711 1942.46 7.2168 1943.49 7.2168C1944.5 7.2168 1945.32 8.03711 1945.32 9.04883C1945.32 10.0742 1944.5 10.8945 1943.49 10.8945Z" fill="white"/>
<path d="M2020.49 10.8945C2019.46 10.8945 2018.64 10.0742 2018.64 9.04883C2018.64 8.03711 2019.46 7.2168 2020.49 7.2168C2021.5 7.2168 2022.32 8.03711 2022.32 9.04883C2022.32 10.0742 2021.5 10.8945 2020.49 10.8945Z" fill="white"/>
<path d="M2120.49 10.8945C2119.46 10.8945 2118.64 10.0742 2118.64 9.04883C2118.64 8.03711 2119.46 7.2168 2120.49 7.2168C2121.5 7.2168 2122.32 8.03711 2122.32 9.04883C2122.32 10.0742 2121.5 10.8945 2120.49 10.8945Z" fill="white"/>
<path d="M2271.49 10.8945C2270.46 10.8945 2269.64 10.0742 2269.64 9.04883C2269.64 8.03711 2270.46 7.2168 2271.49 7.2168C2272.5 7.2168 2273.32 8.03711 2273.32 9.04883C2273.32 10.0742 2272.5 10.8945 2271.49 10.8945Z" fill="white"/>
<path d="M2474.49 10.8945C2473.46 10.8945 2472.64 10.0742 2472.64 9.04883C2472.64 8.03711 2473.46 7.2168 2474.49 7.2168C2475.5 7.2168 2476.32 8.03711 2476.32 9.04883C2476.32 10.0742 2475.5 10.8945 2474.49 10.8945Z" fill="white"/>
<path d="M2589.49 10.8945C2588.46 10.8945 2587.64 10.0742 2587.64 9.04883C2587.64 8.03711 2588.46 7.2168 2589.49 7.2168C2590.5 7.2168 2591.32 8.03711 2591.32 9.04883C2591.32 10.0742 2590.5 10.8945 2589.49 10.8945Z" fill="white"/>
<path d="M2716.88 3.10156V13H2714.83V3.10156H2716.88ZM2718.55 13V3.10156H2720.6V11.3047H2724.87V13H2718.55ZM2726.2 13V3.10156H2728.25V11.3047H2732.51V13H2726.2ZM2739.96 3.10156H2742.03V9.52734C2742.03 11.6943 2740.38 13.1436 2737.93 13.1367C2735.46 13.1436 2733.84 11.6943 2733.84 9.52734V3.10156H2735.89V9.36328C2735.9 10.5049 2736.7 11.3252 2737.93 11.332C2739.16 11.3252 2739.97 10.5049 2739.96 9.36328V3.10156ZM2749.07 5.93164C2748.99 5.14551 2748.36 4.6875 2747.36 4.6875C2746.32 4.6875 2745.74 5.16602 2745.73 5.82227C2745.73 6.54004 2746.46 6.86133 2747.32 7.05273L2748.21 7.27148C2749.9 7.66113 2751.17 8.52246 2751.17 10.1699C2751.17 11.9814 2749.76 13.1436 2747.35 13.1367C2744.95 13.1436 2743.43 12.0361 2743.37 9.91016H2745.36C2745.43 10.9082 2746.22 11.4141 2747.32 11.4141C2748.4 11.4141 2749.1 10.9082 2749.1 10.1699C2749.1 9.49316 2748.48 9.17871 2747.4 8.91211L2746.32 8.65234C2744.65 8.24219 2743.63 7.4082 2743.63 5.95898C2743.62 4.16113 2745.21 2.96484 2747.37 2.96484C2749.57 2.96484 2751.01 4.18164 2751.04 5.93164H2749.07ZM2752.13 4.79688V3.10156H2760.24V4.79688H2757.2V13H2755.17V4.79688H2752.13ZM2761.51 13V3.10156H2765.39C2767.64 3.10156 2768.93 4.36621 2768.93 6.32812C2768.93 7.68164 2768.31 8.66602 2767.18 9.15137L2769.29 13H2767.02L2765.13 9.48633H2763.56V13H2761.51ZM2763.56 7.81836H2765.01C2766.23 7.81836 2766.82 7.31934 2766.81 6.32812C2766.82 5.33008 2766.23 4.79004 2765.01 4.7832H2763.56V7.81836ZM2772.01 13H2769.79L2773.23 3.10156H2775.87L2779.28 13H2777.08L2776.34 10.7168H2772.75L2772.01 13ZM2773.27 9.11719H2775.82L2774.58 5.33008H2774.51L2773.27 9.11719ZM2778.8 4.79688V3.10156H2786.91V4.79688H2783.88V13H2781.84V4.79688H2778.8ZM2790.23 3.10156V13H2788.18V3.10156H2790.23ZM2800.97 8.05078C2800.97 11.2842 2798.96 13.1367 2796.35 13.1367C2793.71 13.1367 2791.71 11.2705 2791.71 8.05078C2791.71 4.81738 2793.71 2.96484 2796.35 2.96484C2798.96 2.96484 2800.97 4.81738 2800.97 8.05078ZM2793.8 8.05078C2793.8 10.1631 2794.81 11.3115 2796.35 11.3184C2797.87 11.3115 2798.88 10.1631 2798.88 8.05078C2798.88 5.93164 2797.87 4.79004 2796.35 4.7832C2794.81 4.79004 2793.8 5.93164 2793.8 8.05078ZM2810.7 3.10156V13H2808.92L2804.58 6.71094H2804.49V13H2802.44V3.10156H2804.25L2808.57 9.39062H2808.66V3.10156H2810.7Z" fill="white"/>
<path d="M2840.45 6.54688C2840.29 5.45312 2839.45 4.79004 2838.29 4.7832C2836.75 4.79004 2835.73 5.96582 2835.73 8.05078C2835.73 10.1836 2836.77 11.3115 2838.28 11.3184C2839.41 11.3115 2840.25 10.6963 2840.45 9.62305L2842.53 9.63672C2842.3 11.4688 2840.77 13.1367 2838.25 13.1367C2835.6 13.1367 2833.64 11.2705 2833.64 8.05078C2833.64 4.81738 2835.64 2.96484 2838.25 2.96484C2840.53 2.96484 2842.26 4.27051 2842.53 6.54688H2840.45ZM2843.96 13V3.10156H2846.02V7.20312H2850.31V3.10156H2852.37V13H2850.31V8.89844H2846.02V13H2843.96ZM2855.7 13H2853.48L2856.91 3.10156H2859.55L2862.97 13H2860.77L2860.02 10.7168H2856.44L2855.7 13ZM2856.96 9.11719H2859.5L2858.27 5.33008H2858.2L2856.96 9.11719ZM2864.09 13V3.10156H2867.97C2870.22 3.10156 2871.51 4.36621 2871.51 6.32812C2871.51 7.68164 2870.89 8.66602 2869.76 9.15137L2871.87 13H2869.6L2867.71 9.48633H2866.14V13H2864.09ZM2866.14 7.81836H2867.59C2868.81 7.81836 2869.4 7.31934 2869.39 6.32812C2869.4 5.33008 2868.81 4.79004 2867.59 4.7832H2866.14V7.81836ZM2874.59 13H2872.38L2875.81 3.10156H2878.45L2881.86 13H2879.66L2878.92 10.7168H2875.33L2874.59 13ZM2875.85 9.11719H2878.4L2877.16 5.33008H2877.09L2875.85 9.11719ZM2889.14 6.54688C2888.97 5.45312 2888.13 4.79004 2886.98 4.7832C2885.44 4.79004 2884.42 5.96582 2884.42 8.05078C2884.42 10.1836 2885.45 11.3115 2886.96 11.3184C2888.09 11.3115 2888.94 10.6963 2889.14 9.62305L2891.21 9.63672C2890.99 11.4688 2889.45 13.1367 2886.94 13.1367C2884.29 13.1367 2882.33 11.2705 2882.33 8.05078C2882.33 4.81738 2884.32 2.96484 2886.94 2.96484C2889.22 2.96484 2890.94 4.27051 2891.21 6.54688H2889.14ZM2892.27 4.79688V3.10156H2900.38V4.79688H2897.34V13H2895.3V4.79688H2892.27ZM2901.65 13V3.10156H2908.29V4.79688H2903.7V7.20312H2907.95V8.89844H2903.7V11.3047H2908.3V13H2901.65ZM2909.89 13V3.10156H2913.77C2916.02 3.10156 2917.31 4.36621 2917.31 6.32812C2917.31 7.68164 2916.69 8.66602 2915.56 9.15137L2917.67 13H2915.4L2913.51 9.48633H2911.94V13H2909.89ZM2911.94 7.81836H2913.39C2914.61 7.81836 2915.2 7.31934 2915.2 6.32812C2915.2 5.33008 2914.61 4.79004 2913.39 4.7832H2911.94V7.81836ZM2925.45 13H2921.96V3.10156H2925.49C2928.47 3.10156 2930.3 4.9541 2930.29 8.03711C2930.3 11.1338 2928.47 13 2925.45 13ZM2924.01 11.2363H2925.37C2927.25 11.2363 2928.24 10.2588 2928.24 8.03711C2928.24 5.83594 2927.25 4.86523 2925.38 4.86523H2924.01V11.2363ZM2931.78 13V3.10156H2938.42V4.79688H2933.83V7.20312H2938.08V8.89844H2933.83V11.3047H2938.44V13H2931.78ZM2945.4 5.93164C2945.31 5.14551 2944.69 4.6875 2943.69 4.6875C2942.65 4.6875 2942.07 5.16602 2942.06 5.82227C2942.05 6.54004 2942.79 6.86133 2943.65 7.05273L2944.54 7.27148C2946.23 7.66113 2947.5 8.52246 2947.5 10.1699C2947.5 11.9814 2946.09 13.1436 2943.67 13.1367C2941.28 13.1436 2939.76 12.0361 2939.7 9.91016H2941.69C2941.76 10.9082 2942.55 11.4141 2943.65 11.4141C2944.73 11.4141 2945.42 10.9082 2945.42 10.1699C2945.42 9.49316 2944.81 9.17871 2943.73 8.91211L2942.65 8.65234C2940.98 8.24219 2939.96 7.4082 2939.96 5.95898C2939.95 4.16113 2941.53 2.96484 2943.7 2.96484C2945.9 2.96484 2947.34 4.18164 2947.37 5.93164H2945.4ZM2950.89 3.10156V13H2948.84V3.10156H2950.89ZM2959.14 6.28711C2958.86 5.35742 2958.11 4.79004 2957.03 4.7832C2955.5 4.79004 2954.46 5.95898 2954.46 8.03711C2954.46 10.1289 2955.47 11.3115 2957.04 11.3184C2958.46 11.3115 2959.3 10.5117 2959.33 9.26758H2957.18V7.72266H2961.31V8.95312C2961.31 11.5508 2959.53 13.1367 2957.03 13.1367C2954.26 13.1367 2952.37 11.1953 2952.37 8.06445C2952.37 4.85156 2954.38 2.96484 2956.99 2.96484C2959.23 2.96484 2960.94 4.33887 2961.21 6.28711H2959.14ZM2971.07 3.10156V13H2969.29L2964.95 6.71094H2964.87V13H2962.81V3.10156H2964.62L2968.94 9.39062H2969.04V3.10156H2971.07Z" fill="white"/>
<path d="M2993.83 13V3.10156H2995.88V7.49023H2996.02L2999.62 3.10156H3002.09L2998.4 7.53125L3002.13 13H2999.67L2996.92 8.91211L2995.88 10.1699V13H2993.83ZM3003.12 13V3.10156H3009.76V4.79688H3005.17V7.20312H3009.42V8.89844H3005.17V11.3047H3009.78V13H3003.12ZM3010.76 3.10156H3013.07L3015.35 7.36719H3015.45L3017.72 3.10156H3020.03L3016.42 9.47266V13H3014.37V9.47266L3010.76 3.10156ZM3026.06 3.10156L3028.46 10.6484H3028.56L3030.98 3.10156H3033.25L3029.83 13H3027.19L3023.76 3.10156H3026.06ZM3036.42 3.10156V13H3034.37V3.10156H3036.42ZM3043.46 5.93164C3043.38 5.14551 3042.76 4.6875 3041.75 4.6875C3040.71 4.6875 3040.13 5.16602 3040.13 5.82227C3040.12 6.54004 3040.86 6.86133 3041.71 7.05273L3042.6 7.27148C3044.3 7.66113 3045.56 8.52246 3045.57 10.1699C3045.56 11.9814 3044.15 13.1436 3041.74 13.1367C3039.35 13.1436 3037.82 12.0361 3037.76 9.91016H3039.76C3039.83 10.9082 3040.62 11.4141 3041.71 11.4141C3042.79 11.4141 3043.49 10.9082 3043.49 10.1699C3043.49 9.49316 3042.88 9.17871 3041.79 8.91211L3040.71 8.65234C3039.05 8.24219 3038.02 7.4082 3038.02 5.95898C3038.01 4.16113 3039.6 2.96484 3041.77 2.96484C3043.96 2.96484 3045.4 4.18164 3045.43 5.93164H3043.46ZM3053.03 3.10156H3055.1V9.52734C3055.1 11.6943 3053.45 13.1436 3051 13.1367C3048.54 13.1436 3046.91 11.6943 3046.91 9.52734V3.10156H3048.96V9.36328C3048.97 10.5049 3049.77 11.3252 3051 11.332C3052.23 11.3252 3053.04 10.5049 3053.03 9.36328V3.10156ZM3058.42 13H3056.21L3059.64 3.10156H3062.28L3065.69 13H3063.49L3062.75 10.7168H3059.17L3058.42 13ZM3059.68 9.11719H3062.23L3060.99 5.33008H3060.92L3059.68 9.11719ZM3066.81 13V3.10156H3068.87V11.3047H3073.13V13H3066.81Z" fill="white"/>
<path d="M3102.45 6.54688C3102.29 5.45312 3101.45 4.79004 3100.29 4.7832C3098.75 4.79004 3097.73 5.96582 3097.73 8.05078C3097.73 10.1836 3098.77 11.3115 3100.28 11.3184C3101.41 11.3115 3102.25 10.6963 3102.45 9.62305L3104.53 9.63672C3104.3 11.4688 3102.77 13.1367 3100.25 13.1367C3097.6 13.1367 3095.64 11.2705 3095.64 8.05078C3095.64 4.81738 3097.64 2.96484 3100.25 2.96484C3102.53 2.96484 3104.26 4.27051 3104.53 6.54688H3102.45ZM3115.03 8.05078C3115.03 11.2842 3113.03 13.1367 3110.41 13.1367C3107.77 13.1367 3105.77 11.2705 3105.77 8.05078C3105.77 4.81738 3107.77 2.96484 3110.41 2.96484C3113.03 2.96484 3115.03 4.81738 3115.03 8.05078ZM3107.87 8.05078C3107.87 10.1631 3108.87 11.3115 3110.41 11.3184C3111.93 11.3115 3112.94 10.1631 3112.94 8.05078C3112.94 5.93164 3111.93 4.79004 3110.41 4.7832C3108.87 4.79004 3107.87 5.93164 3107.87 8.05078ZM3124.76 3.10156V13H3122.99L3118.64 6.71094H3118.56V13H3116.51V3.10156H3118.31L3122.63 9.39062H3122.73V3.10156H3124.76ZM3133.05 6.54688C3132.88 5.45312 3132.04 4.79004 3130.89 4.7832C3129.35 4.79004 3128.33 5.96582 3128.33 8.05078C3128.33 10.1836 3129.36 11.3115 3130.88 11.3184C3132 11.3115 3132.85 10.6963 3133.05 9.62305L3135.13 9.63672C3134.9 11.4688 3133.36 13.1367 3130.85 13.1367C3128.2 13.1367 3126.24 11.2705 3126.24 8.05078C3126.24 4.81738 3128.24 2.96484 3130.85 2.96484C3133.13 2.96484 3134.85 4.27051 3135.13 6.54688H3133.05ZM3136.56 13V3.10156H3143.21V4.79688H3138.61V7.20312H3142.87V8.89844H3138.61V11.3047H3143.22V13H3136.56ZM3144.81 13V3.10156H3148.69C3150.94 3.10156 3152.23 4.48926 3152.23 6.4375C3152.23 8.41309 3150.92 9.77344 3148.63 9.77344H3146.86V13H3144.81ZM3146.86 8.11914H3148.31C3149.52 8.11914 3150.12 7.43555 3150.11 6.4375C3150.12 5.45312 3149.52 4.79004 3148.31 4.7832H3146.86V8.11914ZM3153.15 4.79688V3.10156H3161.25V4.79688H3158.22V13H3156.18V4.79688H3153.15ZM3167.41 13H3165.19L3168.62 3.10156H3171.26L3174.68 13H3172.48L3171.73 10.7168H3168.15L3167.41 13ZM3168.67 9.11719H3171.21L3169.98 5.33008H3169.91L3168.67 9.11719ZM3175.8 13V3.10156H3179.68C3181.93 3.10156 3183.22 4.36621 3183.22 6.32812C3183.22 7.68164 3182.6 8.66602 3181.47 9.15137L3183.58 13H3181.31L3179.42 9.48633H3177.85V13H3175.8ZM3177.85 7.81836H3179.3C3180.52 7.81836 3181.11 7.31934 3181.11 6.32812C3181.11 5.33008 3180.52 4.79004 3179.3 4.7832H3177.85V7.81836ZM3184.26 4.79688V3.10156H3192.37V4.79688H3189.34V13H3187.3V4.79688H3184.26Z" fill="white"/>
<path d="M3214.83 3.10156H3217.38L3220.12 9.81445H3220.23L3222.98 3.10156H3225.53V13H3223.53V6.51953H3223.45L3220.86 12.959H3219.5L3216.91 6.49219H3216.83V13H3214.83V3.10156ZM3227.19 13V3.10156H3233.84V4.79688H3229.24V7.20312H3233.5V8.89844H3229.24V11.3047H3233.85V13H3227.19ZM3238.92 13H3235.44V3.10156H3238.96C3241.95 3.10156 3243.77 4.9541 3243.76 8.03711C3243.77 11.1338 3241.95 13 3238.92 13ZM3237.49 11.2363H3238.84C3240.73 11.2363 3241.71 10.2588 3241.71 8.03711C3241.71 5.83594 3240.73 4.86523 3238.86 4.86523H3237.49V11.2363ZM3247.3 3.10156V13H3245.25V3.10156H3247.3ZM3250.63 13H3248.41L3251.84 3.10156H3254.48L3257.9 13H3255.7L3254.95 10.7168H3251.37L3250.63 13ZM3251.89 9.11719H3254.43L3253.2 5.33008H3253.13L3251.89 9.11719ZM3263.9 13H3261.69L3265.12 3.10156H3267.76L3271.18 13H3268.97L3268.23 10.7168H3264.65L3263.9 13ZM3265.17 9.11719H3267.71L3266.47 5.33008H3266.4L3265.17 9.11719ZM3272.3 13V3.10156H3276.18C3278.43 3.10156 3279.72 4.36621 3279.72 6.32812C3279.72 7.68164 3279.1 8.66602 3277.97 9.15137L3280.08 13H3277.81L3275.91 9.48633H3274.35V13H3272.3ZM3274.35 7.81836H3275.8C3277.01 7.81836 3277.61 7.31934 3277.6 6.32812C3277.61 5.33008 3277.01 4.79004 3275.8 4.7832H3274.35V7.81836ZM3280.76 4.79688V3.10156H3288.87V4.79688H3285.83V13H3283.79V4.79688H3280.76Z" fill="white"/>
<path d="M3318.45 6.54688C3318.29 5.45312 3317.45 4.79004 3316.29 4.7832C3314.75 4.79004 3313.73 5.96582 3313.73 8.05078C3313.73 10.1836 3314.77 11.3115 3316.28 11.3184C3317.41 11.3115 3318.25 10.6963 3318.45 9.62305L3320.53 9.63672C3320.3 11.4688 3318.77 13.1367 3316.25 13.1367C3313.6 13.1367 3311.64 11.2705 3311.64 8.05078C3311.64 4.81738 3313.64 2.96484 3316.25 2.96484C3318.53 2.96484 3320.26 4.27051 3320.53 6.54688H3318.45ZM3331.03 8.05078C3331.03 11.2842 3329.03 13.1367 3326.41 13.1367C3323.77 13.1367 3321.77 11.2705 3321.77 8.05078C3321.77 4.81738 3323.77 2.96484 3326.41 2.96484C3329.03 2.96484 3331.03 4.81738 3331.03 8.05078ZM3323.87 8.05078C3323.87 10.1631 3324.87 11.3115 3326.41 11.3184C3327.93 11.3115 3328.94 10.1631 3328.94 8.05078C3328.94 5.93164 3327.93 4.79004 3326.41 4.7832C3324.87 4.79004 3323.87 5.93164 3323.87 8.05078ZM3332.51 3.10156H3335.05L3337.8 9.81445H3337.91L3340.65 3.10156H3343.2V13H3341.2V6.51953H3341.12L3338.54 12.959H3337.17L3334.58 6.49219H3334.5V13H3332.51V3.10156ZM3346.92 3.10156V13H3344.87V3.10156H3346.92ZM3355.2 6.54688C3355.04 5.45312 3354.2 4.79004 3353.04 4.7832C3351.5 4.79004 3350.48 5.96582 3350.48 8.05078C3350.48 10.1836 3351.52 11.3115 3353.03 11.3184C3354.16 11.3115 3355 10.6963 3355.2 9.62305L3357.28 9.63672C3357.05 11.4688 3355.52 13.1367 3353 13.1367C3350.35 13.1367 3348.39 11.2705 3348.39 8.05078C3348.39 4.81738 3350.39 2.96484 3353 2.96484C3355.28 2.96484 3357.01 4.27051 3357.28 6.54688H3355.2ZM3364.09 5.93164C3364.01 5.14551 3363.38 4.6875 3362.38 4.6875C3361.34 4.6875 3360.76 5.16602 3360.75 5.82227C3360.75 6.54004 3361.48 6.86133 3362.34 7.05273L3363.23 7.27148C3364.92 7.66113 3366.19 8.52246 3366.19 10.1699C3366.19 11.9814 3364.78 13.1436 3362.37 13.1367C3359.97 13.1436 3358.45 12.0361 3358.39 9.91016H3360.38C3360.45 10.9082 3361.24 11.4141 3362.34 11.4141C3363.42 11.4141 3364.12 10.9082 3364.12 10.1699C3364.12 9.49316 3363.5 9.17871 3362.42 8.91211L3361.34 8.65234C3359.67 8.24219 3358.65 7.4082 3358.65 5.95898C3358.64 4.16113 3360.23 2.96484 3362.39 2.96484C3364.59 2.96484 3366.03 4.18164 3366.06 5.93164H3364.09Z" fill="white"/>
<path d="M3390.49 13H3388.27L3391.71 3.10156H3394.34L3397.76 13H3395.56L3394.82 10.7168H3391.23L3390.49 13ZM3391.75 9.11719H3394.3L3393.06 5.33008H3392.99L3391.75 9.11719ZM3407.14 3.10156V13H3405.36L3401.02 6.71094H3400.93V13H3398.88V3.10156H3400.69L3405.01 9.39062H3405.1V3.10156H3407.14ZM3410.86 3.10156V13H3408.81V3.10156H3410.86ZM3412.53 3.10156H3415.07L3417.82 9.81445H3417.93L3420.68 3.10156H3423.22V13H3421.22V6.51953H3421.14L3418.56 12.959H3417.19L3414.61 6.49219H3414.52V13H3412.53V3.10156ZM3426.54 13H3424.33L3427.76 3.10156H3430.4L3433.81 13H3431.61L3430.87 10.7168H3427.29L3426.54 13ZM3427.81 9.11719H3430.35L3429.11 5.33008H3429.04L3427.81 9.11719ZM3433.34 4.79688V3.10156H3441.44V4.79688H3438.41V13H3436.37V4.79688H3433.34ZM3444.77 3.10156V13H3442.71V3.10156H3444.77ZM3455.5 8.05078C3455.5 11.2842 3453.5 13.1367 3450.88 13.1367C3448.24 13.1367 3446.24 11.2705 3446.24 8.05078C3446.24 4.81738 3448.24 2.96484 3450.88 2.96484C3453.5 2.96484 3455.5 4.81738 3455.5 8.05078ZM3448.33 8.05078C3448.33 10.1631 3449.34 11.3115 3450.88 11.3184C3452.4 11.3115 3453.41 10.1631 3453.41 8.05078C3453.41 5.93164 3452.4 4.79004 3450.88 4.7832C3449.34 4.79004 3448.33 5.93164 3448.33 8.05078ZM3465.23 3.10156V13H3463.46L3459.11 6.71094H3459.03V13H3456.97V3.10156H3458.78L3463.1 9.39062H3463.2V3.10156H3465.23Z" fill="white"/>
<path d="M3488.83 3.10156H3491.38L3494.12 9.81445H3494.23L3496.98 3.10156H3499.53V13H3497.53V6.51953H3497.45L3494.86 12.959H3493.5L3490.91 6.49219H3490.83V13H3488.83V3.10156ZM3510.26 8.05078C3510.26 11.2842 3508.25 13.1367 3505.64 13.1367C3503 13.1367 3501 11.2705 3501 8.05078C3501 4.81738 3503 2.96484 3505.64 2.96484C3508.25 2.96484 3510.26 4.81738 3510.26 8.05078ZM3503.09 8.05078C3503.09 10.1631 3504.1 11.3115 3505.64 11.3184C3507.16 11.3115 3508.17 10.1631 3508.17 8.05078C3508.17 5.93164 3507.16 4.79004 3505.64 4.7832C3504.1 4.79004 3503.09 5.93164 3503.09 8.05078ZM3510.91 4.79688V3.10156H3519.02V4.79688H3515.99V13H3513.95V4.79688H3510.91ZM3522.34 3.10156V13H3520.29V3.10156H3522.34ZM3533.08 8.05078C3533.08 11.2842 3531.07 13.1367 3528.46 13.1367C3525.82 13.1367 3523.82 11.2705 3523.82 8.05078C3523.82 4.81738 3525.82 2.96484 3528.46 2.96484C3531.07 2.96484 3533.08 4.81738 3533.08 8.05078ZM3525.91 8.05078C3525.91 10.1631 3526.92 11.3115 3528.46 11.3184C3529.98 11.3115 3530.99 10.1631 3530.98 8.05078C3530.99 5.93164 3529.98 4.79004 3528.46 4.7832C3526.92 4.79004 3525.91 5.93164 3525.91 8.05078ZM3542.81 3.10156V13H3541.03L3536.69 6.71094H3536.6V13H3534.55V3.10156H3536.36L3540.68 9.39062H3540.77V3.10156H3542.81ZM3554.28 6.28711C3554 5.35742 3553.26 4.79004 3552.18 4.7832C3550.64 4.79004 3549.61 5.95898 3549.61 8.03711C3549.61 10.1289 3550.61 11.3115 3552.19 11.3184C3553.6 11.3115 3554.45 10.5117 3554.47 9.26758H3552.33V7.72266H3556.46V8.95312C3556.46 11.5508 3554.67 13.1367 3552.18 13.1367C3549.4 13.1367 3547.51 11.1953 3547.51 8.06445C3547.51 4.85156 3549.52 2.96484 3552.13 2.96484C3554.37 2.96484 3556.09 4.33887 3556.36 6.28711H3554.28ZM3557.96 13V3.10156H3561.84C3564.09 3.10156 3565.38 4.36621 3565.38 6.32812C3565.38 7.68164 3564.76 8.66602 3563.63 9.15137L3565.74 13H3563.47L3561.58 9.48633H3560.01V13H3557.96ZM3560.01 7.81836H3561.46C3562.68 7.81836 3563.27 7.31934 3563.26 6.32812C3563.27 5.33008 3562.68 4.79004 3561.46 4.7832H3560.01V7.81836ZM3568.46 13H3566.24L3569.68 3.10156H3572.31L3575.73 13H3573.53L3572.79 10.7168H3569.2L3568.46 13ZM3569.72 9.11719H3572.27L3571.03 5.33008H3570.96L3569.72 9.11719ZM3576.85 13V3.10156H3580.74C3582.99 3.10156 3584.28 4.48926 3584.28 6.4375C3584.28 8.41309 3582.96 9.77344 3580.68 9.77344H3578.9V13H3576.85ZM3578.9 8.11914H3580.35C3581.57 8.11914 3582.17 7.43555 3582.16 6.4375C3582.17 5.45312 3581.57 4.79004 3580.35 4.7832H3578.9V8.11914ZM3585.58 13V3.10156H3587.63V7.20312H3591.92V3.10156H3593.98V13H3591.92V8.89844H3587.63V13H3585.58ZM3597.7 3.10156V13H3595.65V3.10156H3597.7ZM3605.99 6.54688C3605.82 5.45312 3604.98 4.79004 3603.83 4.7832C3602.29 4.79004 3601.27 5.96582 3601.27 8.05078C3601.27 10.1836 3602.3 11.3115 3603.81 11.3184C3604.94 11.3115 3605.79 10.6963 3605.99 9.62305L3608.07 9.63672C3607.84 11.4688 3606.3 13.1367 3603.79 13.1367C3601.14 13.1367 3599.18 11.2705 3599.18 8.05078C3599.18 4.81738 3601.18 2.96484 3603.79 2.96484C3606.07 2.96484 3607.79 4.27051 3608.07 6.54688H3605.99ZM3614.88 5.93164C3614.79 5.14551 3614.17 4.6875 3613.17 4.6875C3612.13 4.6875 3611.55 5.16602 3611.54 5.82227C3611.53 6.54004 3612.27 6.86133 3613.12 7.05273L3614.01 7.27148C3615.71 7.66113 3616.97 8.52246 3616.98 10.1699C3616.97 11.9814 3615.57 13.1436 3613.15 13.1367C3610.76 13.1436 3609.24 12.0361 3609.17 9.91016H3611.17C3611.24 10.9082 3612.03 11.4141 3613.12 11.4141C3614.21 11.4141 3614.9 10.9082 3614.9 10.1699C3614.9 9.49316 3614.29 9.17871 3613.21 8.91211L3612.13 8.65234C3610.46 8.24219 3609.43 7.4082 3609.43 5.95898C3609.43 4.16113 3611.01 2.96484 3613.18 2.96484C3615.37 2.96484 3616.82 4.18164 3616.84 5.93164H3614.88Z" fill="white"/>
<path d="M3641.88 3.10156V13H3639.83V3.10156H3641.88ZM3643.55 3.10156H3646.1L3648.84 9.81445H3648.95L3651.7 3.10156H3654.24V13H3652.25V6.51953H3652.17L3649.58 12.959H3648.21L3645.63 6.49219H3645.55V13H3643.55V3.10156ZM3657.57 13H3655.35L3658.78 3.10156H3661.42L3664.84 13H3662.64L3661.89 10.7168H3658.31L3657.57 13ZM3658.83 9.11719H3661.37L3660.14 5.33008H3660.07L3658.83 9.11719ZM3672.07 6.28711C3671.79 5.35742 3671.05 4.79004 3669.97 4.7832C3668.44 4.79004 3667.4 5.95898 3667.4 8.03711C3667.4 10.1289 3668.4 11.3115 3669.98 11.3184C3671.4 11.3115 3672.24 10.5117 3672.26 9.26758H3670.12V7.72266H3674.25V8.95312C3674.25 11.5508 3672.46 13.1367 3669.97 13.1367C3667.19 13.1367 3665.3 11.1953 3665.3 8.06445C3665.3 4.85156 3667.31 2.96484 3669.93 2.96484C3672.16 2.96484 3673.88 4.33887 3674.15 6.28711H3672.07ZM3675.75 13V3.10156H3682.39V4.79688H3677.8V7.20312H3682.05V8.89844H3677.8V11.3047H3682.41V13H3675.75ZM3692.25 3.10156V13H3690.47L3686.13 6.71094H3686.04V13H3683.99V3.10156H3685.8L3690.12 9.39062H3690.21V3.10156H3692.25ZM3695.57 13H3693.36L3696.79 3.10156H3699.43L3702.85 13H3700.65L3699.9 10.7168H3696.32L3695.57 13ZM3696.84 9.11719H3699.38L3698.14 5.33008H3698.08L3696.84 9.11719ZM3703.97 13V3.10156H3707.85C3710.1 3.10156 3711.39 4.36621 3711.39 6.32812C3711.39 7.68164 3710.77 8.66602 3709.64 9.15137L3711.75 13H3709.48L3707.58 9.48633H3706.02V13H3703.97ZM3706.02 7.81836H3707.47C3708.69 7.81836 3709.28 7.31934 3709.27 6.32812C3709.28 5.33008 3708.69 4.79004 3707.47 4.7832H3706.02V7.81836ZM3711.8 3.10156H3714.11L3716.4 7.36719H3716.49L3718.76 3.10156H3721.07L3717.46 9.47266V13H3715.41V9.47266L3711.8 3.10156ZM3727.02 13H3724.8L3728.24 3.10156H3730.88L3734.29 13H3732.09L3731.35 10.7168H3727.76L3727.02 13ZM3728.28 9.11719H3730.83L3729.59 5.33008H3729.52L3728.28 9.11719ZM3737.46 3.10156V13H3735.41V3.10156H3737.46ZM3747.73 5.93164C3747.65 5.14551 3747.03 4.6875 3746.02 4.6875C3744.98 4.6875 3744.4 5.16602 3744.4 5.82227C3744.39 6.54004 3745.13 6.86133 3745.98 7.05273L3746.87 7.27148C3748.57 7.66113 3749.83 8.52246 3749.84 10.1699C3749.83 11.9814 3748.42 13.1436 3746.01 13.1367C3743.62 13.1436 3742.09 12.0361 3742.03 9.91016H3744.03C3744.1 10.9082 3744.89 11.4141 3745.98 11.4141C3747.06 11.4141 3747.76 10.9082 3747.76 10.1699C3747.76 9.49316 3747.14 9.17871 3746.06 8.91211L3744.98 8.65234C3743.32 8.24219 3742.29 7.4082 3742.29 5.95898C3742.28 4.16113 3743.87 2.96484 3746.04 2.96484C3748.23 2.96484 3749.67 4.18164 3749.7 5.93164H3747.73ZM3760.24 8.05078C3760.24 11.2842 3758.24 13.1367 3755.62 13.1367C3752.98 13.1367 3750.99 11.2705 3750.99 8.05078C3750.99 4.81738 3752.98 2.96484 3755.62 2.96484C3758.24 2.96484 3760.24 4.81738 3760.24 8.05078ZM3753.08 8.05078C3753.08 10.1631 3754.08 11.3115 3755.62 11.3184C3757.15 11.3115 3758.16 10.1631 3758.15 8.05078C3758.16 5.93164 3757.15 4.79004 3755.62 4.7832C3754.08 4.79004 3753.08 5.93164 3753.08 8.05078ZM3761.72 13V3.10156H3763.77V11.3047H3768.04V13H3761.72ZM3775.49 3.10156H3777.55V9.52734C3777.55 11.6943 3775.9 13.1436 3773.45 13.1367C3770.99 13.1436 3769.36 11.6943 3769.36 9.52734V3.10156H3771.41V9.36328C3771.42 10.5049 3772.23 11.3252 3773.45 11.332C3774.69 11.3252 3775.49 10.5049 3775.49 9.36328V3.10156ZM3778.84 4.79688V3.10156H3786.94V4.79688H3783.91V13H3781.87V4.79688H3778.84ZM3790.27 3.10156V13H3788.21V3.10156H3790.27ZM3801 8.05078C3801 11.2842 3799 13.1367 3796.38 13.1367C3793.74 13.1367 3791.74 11.2705 3791.74 8.05078C3791.74 4.81738 3793.74 2.96484 3796.38 2.96484C3799 2.96484 3801 4.81738 3801 8.05078ZM3793.83 8.05078C3793.83 10.1631 3794.84 11.3115 3796.38 11.3184C3797.9 11.3115 3798.91 10.1631 3798.91 8.05078C3798.91 5.93164 3797.9 4.79004 3796.38 4.7832C3794.84 4.79004 3793.83 5.93164 3793.83 8.05078ZM3810.73 3.10156V13H3808.96L3804.61 6.71094H3804.53V13H3802.47V3.10156H3804.28L3808.6 9.39062H3808.7V3.10156H3810.73ZM3817.77 5.93164C3817.69 5.14551 3817.07 4.6875 3816.06 4.6875C3815.03 4.6875 3814.44 5.16602 3814.44 5.82227C3814.43 6.54004 3815.17 6.86133 3816.02 7.05273L3816.91 7.27148C3818.61 7.66113 3819.87 8.52246 3819.88 10.1699C3819.87 11.9814 3818.46 13.1436 3816.05 13.1367C3813.66 13.1436 3812.13 12.0361 3812.07 9.91016H3814.07C3814.14 10.9082 3814.93 11.4141 3816.02 11.4141C3817.1 11.4141 3817.8 10.9082 3817.8 10.1699C3817.8 9.49316 3817.19 9.17871 3816.11 8.91211L3815.03 8.65234C3813.36 8.24219 3812.33 7.4082 3812.33 5.95898C3812.33 4.16113 3813.91 2.96484 3816.08 2.96484C3818.27 2.96484 3819.71 4.18164 3819.74 5.93164H3817.77Z" fill="white"/>
<path d="M3848.21 5.93164C3848.12 5.14551 3847.5 4.6875 3846.5 4.6875C3845.46 4.6875 3844.88 5.16602 3844.87 5.82227C3844.86 6.54004 3845.6 6.86133 3846.46 7.05273L3847.35 7.27148C3849.04 7.66113 3850.31 8.52246 3850.31 10.1699C3850.31 11.9814 3848.9 13.1436 3846.48 13.1367C3844.09 13.1436 3842.57 12.0361 3842.51 9.91016H3844.5C3844.57 10.9082 3845.36 11.4141 3846.46 11.4141C3847.54 11.4141 3848.23 10.9082 3848.23 10.1699C3848.23 9.49316 3847.62 9.17871 3846.54 8.91211L3845.46 8.65234C3843.79 8.24219 3842.77 7.4082 3842.77 5.95898C3842.76 4.16113 3844.34 2.96484 3846.51 2.96484C3848.71 2.96484 3850.15 4.18164 3850.18 5.93164H3848.21ZM3851.27 4.79688V3.10156H3859.38V4.79688H3856.34V13H3854.3V4.79688H3851.27ZM3869.28 8.05078C3869.28 11.2842 3867.27 13.1367 3864.65 13.1367C3862.02 13.1367 3860.02 11.2705 3860.02 8.05078C3860.02 4.81738 3862.02 2.96484 3864.65 2.96484C3867.27 2.96484 3869.28 4.81738 3869.28 8.05078ZM3862.11 8.05078C3862.11 10.1631 3863.12 11.3115 3864.65 11.3184C3866.18 11.3115 3867.19 10.1631 3867.18 8.05078C3867.19 5.93164 3866.18 4.79004 3864.65 4.7832C3863.12 4.79004 3862.11 5.93164 3862.11 8.05078ZM3870.75 13V3.10156H3874.63C3876.88 3.10156 3878.18 4.36621 3878.18 6.32812C3878.18 7.68164 3877.55 8.66602 3876.43 9.15137L3878.53 13H3876.26L3874.37 9.48633H3872.8V13H3870.75ZM3872.8 7.81836H3874.25C3875.47 7.81836 3876.06 7.31934 3876.06 6.32812C3876.06 5.33008 3875.47 4.79004 3874.25 4.7832H3872.8V7.81836ZM3878.59 3.10156H3880.9L3883.18 7.36719H3883.28L3885.54 3.10156H3887.86L3884.25 9.47266V13H3882.2V9.47266L3878.59 3.10156ZM3888.92 13V3.10156H3892.86C3895.04 3.10156 3896.15 4.1543 3896.14 5.64453C3896.15 6.80664 3895.38 7.53809 3894.36 7.76367V7.85938C3895.48 7.91406 3896.53 8.80273 3896.54 10.2656C3896.53 11.8379 3895.35 13 3893.12 13H3888.92ZM3890.97 11.3047H3892.71C3893.9 11.3115 3894.41 10.8193 3894.4 10.0742C3894.41 9.24023 3893.78 8.65234 3892.76 8.65234H3890.97V11.3047ZM3890.97 7.24414H3892.56C3893.42 7.25098 3894.07 6.76562 3894.06 5.97266C3894.07 5.25488 3893.54 4.76953 3892.6 4.76953H3890.97V7.24414ZM3906.9 8.05078C3906.9 11.2842 3904.9 13.1367 3902.28 13.1367C3899.64 13.1367 3897.64 11.2705 3897.64 8.05078C3897.64 4.81738 3899.64 2.96484 3902.28 2.96484C3904.9 2.96484 3906.9 4.81738 3906.9 8.05078ZM3899.74 8.05078C3899.74 10.1631 3900.74 11.3115 3902.28 11.3184C3903.8 11.3115 3904.82 10.1631 3904.81 8.05078C3904.82 5.93164 3903.8 4.79004 3902.28 4.7832C3900.74 4.79004 3899.74 5.93164 3899.74 8.05078ZM3909.47 13H3907.26L3910.69 3.10156H3913.33L3916.74 13H3914.54L3913.8 10.7168H3910.22L3909.47 13ZM3910.74 9.11719H3913.28L3912.04 5.33008H3911.97L3910.74 9.11719ZM3917.87 13V3.10156H3921.75C3924 3.10156 3925.29 4.36621 3925.29 6.32812C3925.29 7.68164 3924.67 8.66602 3923.54 9.15137L3925.64 13H3923.38L3921.48 9.48633H3919.92V13H3917.87ZM3919.92 7.81836H3921.37C3922.58 7.81836 3923.18 7.31934 3923.17 6.32812C3923.18 5.33008 3922.58 4.79004 3921.37 4.7832H3919.92V7.81836ZM3930.2 13H3926.71V3.10156H3930.24C3933.22 3.10156 3935.04 4.9541 3935.04 8.03711C3935.04 11.1338 3933.22 13 3930.2 13ZM3928.76 11.2363H3930.12C3932 11.2363 3932.99 10.2588 3932.99 8.03711C3932.99 5.83594 3932 4.86523 3930.13 4.86523H3928.76V11.2363Z" fill="white"/>
<path d="M3957.83 13V3.10156H3959.88V11.3047H3964.15V13H3957.83ZM3974.14 8.05078C3974.14 11.2842 3972.14 13.1367 3969.52 13.1367C3966.88 13.1367 3964.89 11.2705 3964.89 8.05078C3964.89 4.81738 3966.88 2.96484 3969.52 2.96484C3972.14 2.96484 3974.14 4.81738 3974.14 8.05078ZM3966.98 8.05078C3966.98 10.1631 3967.99 11.3115 3969.52 11.3184C3971.05 11.3115 3972.06 10.1631 3972.05 8.05078C3972.06 5.93164 3971.05 4.79004 3969.52 4.7832C3967.99 4.79004 3966.98 5.93164 3966.98 8.05078ZM3982.2 6.28711C3981.92 5.35742 3981.17 4.79004 3980.09 4.7832C3978.56 4.79004 3977.52 5.95898 3977.52 8.03711C3977.52 10.1289 3978.53 11.3115 3980.11 11.3184C3981.52 11.3115 3982.36 10.5117 3982.39 9.26758H3980.24V7.72266H3984.37V8.95312C3984.37 11.5508 3982.59 13.1367 3980.09 13.1367C3977.32 13.1367 3975.43 11.1953 3975.43 8.06445C3975.43 4.85156 3977.44 2.96484 3980.05 2.96484C3982.29 2.96484 3984 4.33887 3984.28 6.28711H3982.2ZM3994.94 8.05078C3994.94 11.2842 3992.94 13.1367 3990.32 13.1367C3987.68 13.1367 3985.68 11.2705 3985.68 8.05078C3985.68 4.81738 3987.68 2.96484 3990.32 2.96484C3992.94 2.96484 3994.94 4.81738 3994.94 8.05078ZM3987.78 8.05078C3987.78 10.1631 3988.78 11.3115 3990.32 11.3184C3991.84 11.3115 3992.85 10.1631 3992.85 8.05078C3992.85 5.93164 3991.84 4.79004 3990.32 4.7832C3988.78 4.79004 3987.78 5.93164 3987.78 8.05078ZM4003.13 13H3999.64V3.10156H4003.17C4006.15 3.10156 4007.98 4.9541 4007.97 8.03711C4007.98 11.1338 4006.15 13 4003.13 13ZM4001.69 11.2363H4003.05C4004.93 11.2363 4005.92 10.2588 4005.92 8.03711C4005.92 5.83594 4004.93 4.86523 4003.06 4.86523H4001.69V11.2363ZM4009.46 13V3.10156H4016.1V4.79688H4011.51V7.20312H4015.76V8.89844H4011.51V11.3047H4016.12V13H4009.46ZM4023.08 5.93164C4022.99 5.14551 4022.37 4.6875 4021.37 4.6875C4020.33 4.6875 4019.75 5.16602 4019.74 5.82227C4019.73 6.54004 4020.47 6.86133 4021.33 7.05273L4022.21 7.27148C4023.91 7.66113 4025.17 8.52246 4025.18 10.1699C4025.17 11.9814 4023.77 13.1436 4021.35 13.1367C4018.96 13.1436 4017.44 12.0361 4017.38 9.91016H4019.37C4019.44 10.9082 4020.23 11.4141 4021.33 11.4141C4022.41 11.4141 4023.1 10.9082 4023.1 10.1699C4023.1 9.49316 4022.49 9.17871 4021.41 8.91211L4020.33 8.65234C4018.66 8.24219 4017.63 7.4082 4017.63 5.95898C4017.63 4.16113 4019.21 2.96484 4021.38 2.96484C4023.58 2.96484 4025.02 4.18164 4025.04 5.93164H4023.08ZM4028.57 3.10156V13H4026.52V3.10156H4028.57ZM4036.82 6.28711C4036.54 5.35742 4035.79 4.79004 4034.71 4.7832C4033.18 4.79004 4032.14 5.95898 4032.14 8.03711C4032.14 10.1289 4033.15 11.3115 4034.72 11.3184C4036.14 11.3115 4036.98 10.5117 4037.01 9.26758H4034.86V7.72266H4038.99V8.95312C4038.99 11.5508 4037.21 13.1367 4034.71 13.1367C4031.94 13.1367 4030.05 11.1953 4030.05 8.06445C4030.05 4.85156 4032.06 2.96484 4034.67 2.96484C4036.91 2.96484 4038.62 4.33887 4038.89 6.28711H4036.82ZM4048.75 3.10156V13H4046.97L4042.63 6.71094H4042.54V13H4040.49V3.10156H4042.3L4046.62 9.39062H4046.71V3.10156H4048.75Z" fill="white"/>
<path d="M2822.49 10.8945C2821.46 10.8945 2820.64 10.0742 2820.64 9.04883C2820.64 8.03711 2821.46 7.2168 2822.49 7.2168C2823.5 7.2168 2824.32 8.03711 2824.32 9.04883C2824.32 10.0742 2823.5 10.8945 2822.49 10.8945Z" fill="white"/>
<path d="M2703.49 10.8945C2702.46 10.8945 2701.64 10.0742 2701.64 9.04883C2701.64 8.03711 2702.46 7.2168 2703.49 7.2168C2704.5 7.2168 2705.32 8.03711 2705.32 9.04883C2705.32 10.0742 2704.5 10.8945 2703.49 10.8945Z" fill="white"/>
<path d="M2982.49 10.8945C2981.46 10.8945 2980.64 10.0742 2980.64 9.04883C2980.64 8.03711 2981.46 7.2168 2982.49 7.2168C2983.5 7.2168 2984.32 8.03711 2984.32 9.04883C2984.32 10.0742 2983.5 10.8945 2982.49 10.8945Z" fill="white"/>
<path d="M3084.49 10.8945C3083.46 10.8945 3082.64 10.0742 3082.64 9.04883C3082.64 8.03711 3083.46 7.2168 3084.49 7.2168C3085.5 7.2168 3086.32 8.03711 3086.32 9.04883C3086.32 10.0742 3085.5 10.8945 3084.49 10.8945Z" fill="white"/>
<path d="M3203.49 10.8945C3202.46 10.8945 3201.64 10.0742 3201.64 9.04883C3201.64 8.03711 3202.46 7.2168 3203.49 7.2168C3204.5 7.2168 3205.32 8.03711 3205.32 9.04883C3205.32 10.0742 3204.5 10.8945 3203.49 10.8945Z" fill="white"/>
<path d="M3300.49 10.8945C3299.46 10.8945 3298.64 10.0742 3298.64 9.04883C3298.64 8.03711 3299.46 7.2168 3300.49 7.2168C3301.5 7.2168 3302.32 8.03711 3302.32 9.04883C3302.32 10.0742 3301.5 10.8945 3300.49 10.8945Z" fill="white"/>
<path d="M3377.49 10.8945C3376.46 10.8945 3375.64 10.0742 3375.64 9.04883C3375.64 8.03711 3376.46 7.2168 3377.49 7.2168C3378.5 7.2168 3379.32 8.03711 3379.32 9.04883C3379.32 10.0742 3378.5 10.8945 3377.49 10.8945Z" fill="white"/>
<path d="M3477.49 10.8945C3476.46 10.8945 3475.64 10.0742 3475.64 9.04883C3475.64 8.03711 3476.46 7.2168 3477.49 7.2168C3478.5 7.2168 3479.32 8.03711 3479.32 9.04883C3479.32 10.0742 3478.5 10.8945 3477.49 10.8945Z" fill="white"/>
<path d="M3628.49 10.8945C3627.46 10.8945 3626.64 10.0742 3626.64 9.04883C3626.64 8.03711 3627.46 7.2168 3628.49 7.2168C3629.5 7.2168 3630.32 8.03711 3630.32 9.04883C3630.32 10.0742 3629.5 10.8945 3628.49 10.8945Z" fill="white"/>
<path d="M3831.49 10.8945C3830.46 10.8945 3829.64 10.0742 3829.64 9.04883C3829.64 8.03711 3830.46 7.2168 3831.49 7.2168C3832.5 7.2168 3833.32 8.03711 3833.32 9.04883C3833.32 10.0742 3832.5 10.8945 3831.49 10.8945Z" fill="white"/>
<path d="M3946.49 10.8945C3945.46 10.8945 3944.64 10.0742 3944.64 9.04883C3944.64 8.03711 3945.46 7.2168 3946.49 7.2168C3947.5 7.2168 3948.32 8.03711 3948.32 9.04883C3948.32 10.0742 3947.5 10.8945 3946.49 10.8945Z" fill="white"/>
</svg>
